{"glyphs":{":":{"x_min":0,"x_max":277,"ha":277,"o":"m 149 405 b 140 405 131 405 122 401 b 113 396 98 392 94 387 b 89 383 89 374 89 365 b 89 359 89 359 89 355 b 85 341 89 337 103 332 b 107 332 113 328 118 328 b 131 323 144 319 159 309 b 177 304 199 309 205 323 b 214 341 223 365 205 383 b 199 392 190 396 181 401 b 172 405 159 405 149 405 z m 195 212 b 190 231 181 249 164 254 b 159 254 153 254 149 258 b 135 263 118 258 107 249 b 98 245 89 236 94 222 b 94 217 94 208 94 203 b 98 190 98 171 103 157 b 103 153 107 148 113 148 b 122 148 131 153 140 157 b 149 157 153 157 164 162 b 172 162 186 162 186 176 b 190 190 190 203 195 212 z"},"$":{"x_min":0,"x_max":387,"ha":387,"o":"m -9 184 b -9 179 -9 174 -9 169 b -13 165 -13 155 -9 150 b 11 122 26 97 45 74 b 54 59 74 45 88 30 b 97 20 112 6 132 6 b 136 6 141 1 136 -9 b 136 -23 136 -42 141 -56 b 141 -75 141 -90 145 -109 b 145 -114 145 -119 155 -119 b 170 -119 179 -119 188 -119 b 198 -119 203 -114 208 -109 b 222 -94 222 -75 222 -61 b 222 -38 222 -18 222 6 b 222 6 222 11 227 11 b 242 20 261 26 271 39 b 275 49 280 54 290 54 b 309 59 319 78 328 93 b 342 126 352 159 357 194 b 366 236 342 271 319 304 b 304 319 285 333 261 337 b 232 342 203 342 174 356 b 165 356 160 356 151 362 b 145 366 145 391 151 400 b 155 410 165 424 170 433 b 179 443 184 458 188 468 b 198 487 208 496 213 520 b 213 524 213 534 217 544 b 222 534 232 534 236 530 b 251 506 265 487 275 462 b 275 458 280 453 285 453 b 300 453 313 453 328 453 b 328 453 333 462 333 468 b 333 472 328 477 328 482 b 323 496 319 510 309 520 b 300 539 285 553 261 559 b 256 563 246 563 242 568 b 246 587 246 607 242 626 b 236 650 227 669 208 684 b 188 698 165 693 160 669 b 160 650 160 626 155 607 b 155 592 160 587 141 578 b 117 568 93 549 78 524 b 68 515 64 501 54 491 b 45 472 45 448 54 429 b 59 410 68 395 78 376 b 93 342 122 323 155 319 b 174 319 188 319 203 309 b 236 294 251 271 246 232 b 242 213 242 188 227 169 b 222 165 217 155 213 155 b 203 150 198 145 194 140 b 188 136 188 136 184 136 b 165 122 145 112 126 103 b 122 103 112 97 103 97 b 88 97 74 107 59 116 b 49 131 39 140 30 150 b 30 155 30 155 30 159 b 30 159 30 165 26 165 b 26 169 20 169 20 165 b 11 159 6 165 6 169 b 1 174 -3 179 -9 184 z"},"?":{"x_min":0,"x_max":406,"ha":406,"o":"m 92 153 b 102 153 106 158 116 158 b 135 153 154 153 173 162 b 178 167 178 172 183 172 b 183 186 188 205 192 220 b 202 253 216 282 240 311 b 250 325 264 340 279 354 b 288 363 298 368 307 378 b 317 387 331 402 341 416 b 350 430 365 445 374 459 b 384 478 384 498 379 517 b 374 555 346 584 307 603 b 293 608 279 612 264 617 b 245 622 221 622 202 622 b 173 622 145 612 121 603 b 87 593 68 574 73 536 b 73 526 73 512 87 502 b 87 502 92 502 97 502 b 102 502 102 507 102 512 b 102 517 102 521 102 526 b 102 536 102 545 111 555 b 121 569 140 579 159 579 b 188 584 216 593 245 588 b 274 584 288 555 274 531 b 269 521 260 517 255 507 b 245 498 236 488 221 474 b 216 469 207 459 197 454 b 192 450 183 440 178 435 b 173 430 164 421 154 416 b 145 397 135 383 125 363 b 121 354 116 344 111 335 b 106 316 97 301 92 282 b 87 263 92 234 87 210 b 87 201 87 186 78 177 b 73 172 78 158 78 153 b 82 153 87 148 87 143 b 87 138 92 134 92 124 b 106 129 106 138 92 153 z m 82 52 b 82 47 82 43 87 38 b 87 33 92 28 97 19 b 97 4 111 0 121 -5 b 159 -10 178 0 197 28 b 202 43 197 62 183 67 b 173 67 164 71 154 76 b 149 76 140 81 130 81 b 121 81 111 81 102 81 b 97 81 92 81 92 76 b 87 71 82 62 82 52 z"},"<":{"x_min":0,"x_max":310,"ha":310,"o":"m 104 165 b 108 169 116 169 119 172 b 138 187 161 206 180 221 b 199 240 214 255 229 270 b 240 282 248 289 251 301 b 251 308 259 319 259 327 b 266 342 270 357 266 372 b 263 387 244 402 229 395 b 214 387 199 376 183 365 b 172 353 161 342 153 331 b 142 323 134 312 123 304 b 116 293 104 286 93 274 b 70 255 48 236 33 210 b 29 206 25 199 29 191 b 36 184 40 176 44 172 b 59 153 70 142 89 131 b 100 123 116 112 127 108 b 131 108 131 108 131 108 b 157 89 183 70 210 52 b 221 44 236 33 251 29 b 259 29 263 33 263 37 b 263 40 263 44 259 48 b 244 55 229 63 217 74 b 210 78 206 82 206 89 b 206 93 206 97 202 97 b 199 104 195 108 191 116 b 187 116 183 120 180 120 b 172 138 157 146 138 153 b 127 157 116 161 104 165 z"},"'":{"x_min":0,"x_max":175,"ha":175,"o":"m 50 508 b 54 494 54 477 57 465 b 57 458 57 458 64 458 b 78 461 90 465 104 465 b 107 468 117 468 117 474 b 124 487 131 501 127 518 b 127 525 127 531 124 538 b 124 552 120 564 117 574 b 107 591 88 598 71 595 b 57 595 54 591 57 574 b 57 574 57 574 57 574 b 54 552 54 528 50 508 z"},"=":{"x_min":0,"x_max":412,"ha":412,"o":"m 321 131 b 327 131 336 135 342 135 b 348 137 352 143 352 151 b 348 153 348 157 344 159 b 336 174 325 184 315 194 b 315 196 309 196 305 196 b 303 196 299 194 295 194 b 266 194 236 196 207 200 b 185 200 165 200 142 200 b 126 202 110 202 91 202 b 85 202 79 202 73 206 b 69 210 63 210 63 206 b 63 196 63 190 67 184 b 69 174 79 168 85 159 b 96 151 110 147 126 147 b 142 147 159 143 177 143 b 191 141 203 137 218 137 b 240 137 262 131 285 131 b 295 135 309 131 321 131 z m 319 314 b 315 314 311 312 309 312 b 299 312 285 314 277 314 b 256 314 236 314 218 318 b 203 318 191 318 175 318 b 161 318 148 318 132 318 b 118 318 106 318 91 318 b 85 318 83 320 75 320 b 69 324 63 318 67 312 b 69 302 73 292 79 286 b 96 271 112 269 132 269 b 148 265 165 265 177 261 b 193 259 207 259 220 259 b 250 259 277 259 305 259 b 315 259 327 255 342 255 b 352 259 358 265 352 277 b 344 292 327 304 319 314 b 319 314 319 314 319 314 z"},"a":{"x_min":0,"x_max":371,"ha":371,"o":"m 167 155 b 167 154 168 154 168 154 b 168 149 168 145 168 140 b 168 135 168 130 168 125 b 168 113 166 101 167 90 b 168 73 172 57 179 41 b 185 27 192 16 204 7 b 217 -3 214 -2 231 -2 b 238 -2 245 -1 251 2 b 262 6 273 13 282 20 b 295 29 305 42 313 56 b 322 69 329 82 338 94 b 342 100 342 99 347 108 b 356 125 380 172 387 189 b 390 196 395 196 389 198 b 381 200 389 198 380 199 b 379 199 377 196 376 195 b 368 180 346 131 337 117 b 331 106 321 96 314 85 b 303 65 292 45 274 29 b 265 21 255 15 244 13 b 237 20 232 27 225 34 b 232 42 238 51 245 60 b 246 61 246 63 247 64 b 251 76 253 90 260 100 b 272 117 274 137 280 155 b 283 167 284 180 285 192 b 287 209 288 226 290 243 b 290 249 292 254 292 260 b 292 269 293 279 292 289 b 291 297 287 306 286 314 b 283 328 273 336 263 344 b 255 352 244 353 233 354 b 219 356 206 354 197 342 b 192 334 187 325 183 318 b 176 323 167 328 159 334 b 149 342 137 342 126 338 b 117 335 110 329 101 327 b 90 325 83 317 75 311 b 66 303 58 294 49 285 b 46 281 42 278 39 273 b 34 265 29 256 24 246 b 21 241 18 236 16 230 b 12 220 9 210 5 200 b 0 181 -8 163 -11 144 b -17 116 -12 88 4 63 b 18 40 38 27 66 27 b 73 27 79 32 85 32 b 98 32 107 39 113 47 b 122 57 127 70 133 82 b 142 99 149 117 157 135 b 160 141 164 148 167 155 z m 173 286 b 173 271 172 256 171 241 b 170 220 166 201 154 182 b 144 166 137 147 128 130 b 120 114 113 97 103 82 b 95 71 84 61 74 52 b 65 45 47 48 39 58 b 34 64 28 70 25 77 b 21 88 16 100 20 113 b 24 127 27 141 31 154 b 38 174 45 193 52 212 b 56 222 60 233 65 243 b 66 247 69 251 71 254 b 78 264 85 275 92 284 b 103 296 115 307 132 307 b 137 307 142 303 146 300 b 150 296 154 291 159 288 b 163 286 169 286 173 286 z"},"L":{"x_min":0,"x_max":220,"ha":220,"o":"m 11 24 b 15 22 22 17 28 11 b 62 -20 94 -53 129 -83 b 168 -116 211 -143 259 -161 b 293 -173 328 -182 364 -190 b 394 -197 425 -203 456 -207 b 509 -215 562 -222 616 -214 b 657 -207 700 -203 738 -184 b 773 -167 806 -148 838 -128 b 864 -112 889 -95 903 -67 b 907 -60 910 -82 911 -75 b 911 -68 907 -59 903 -57 b 898 -55 890 -60 885 -63 b 853 -86 824 -112 791 -133 b 766 -149 737 -157 710 -171 b 658 -197 603 -209 545 -203 b 530 -202 516 -202 502 -199 b 469 -193 437 -186 404 -180 b 361 -172 318 -129 280 -106 b 241 -82 204 -53 167 -26 b 148 -12 130 4 112 18 b 90 35 68 52 43 71 b 53 81 63 87 69 95 b 84 116 98 138 112 160 b 122 177 132 194 142 212 b 162 247 189 279 197 320 b 203 347 208 374 212 401 b 213 412 210 425 212 436 b 222 489 236 540 255 590 b 259 600 264 603 273 603 b 311 603 334 625 349 657 b 354 669 353 679 346 691 b 327 723 295 721 265 709 b 236 697 213 674 193 649 b 186 641 181 640 173 645 b 154 659 134 672 116 686 b 107 693 100 693 91 687 b 109 652 140 636 172 625 b 166 609 159 593 153 578 b 143 557 133 537 124 515 b 115 492 107 468 97 445 b 85 416 72 388 59 360 b 51 343 45 326 36 311 b 20 284 3 257 -15 231 b -35 203 -56 176 -77 149 b -79 147 -83 146 -86 146 b -110 146 -133 149 -156 148 b -185 146 -208 132 -220 104 b -233 73 -223 47 -200 27 b -184 13 -163 6 -146 -6 b -127 -18 -109 -26 -86 -15 b -54 -1 -22 11 11 24 z m -109 119 b -161 86 -192 83 -205 110 b -186 104 -169 111 -152 117 b -138 121 -124 121 -110 124 b -110 122 -110 120 -109 119 z m 307 684 b 326 671 328 664 312 649 b 302 640 289 635 277 628 b 276 629 276 630 275 631 b 286 648 296 666 307 684 z"},"3":{"x_min":0,"x_max":395,"ha":395,"o":"m 223 340 b 241 345 255 357 261 370 b 284 387 303 415 306 443 b 312 449 315 458 315 466 b 312 480 306 496 303 510 b 294 538 271 552 246 560 b 213 569 184 572 153 569 b 114 560 83 542 57 522 b 49 513 49 508 57 503 b 69 500 83 503 97 508 b 123 522 149 533 184 538 b 201 542 210 530 210 513 b 210 513 207 513 207 510 b 207 500 201 488 201 476 b 193 461 184 446 171 429 b 159 419 140 407 127 396 b 127 396 123 392 117 392 b 101 382 79 370 66 354 b 66 350 66 345 66 342 b 66 335 69 331 75 328 b 79 320 88 315 97 312 b 101 308 111 308 114 308 b 123 308 133 308 140 308 b 153 308 165 312 181 312 b 193 308 207 308 213 308 b 232 303 249 293 258 278 b 271 244 261 209 249 175 b 246 155 232 135 223 116 b 213 105 207 98 193 88 b 188 83 181 74 171 71 b 153 59 136 49 114 56 b 101 59 92 63 83 63 b 66 68 53 74 53 93 b 53 93 53 101 53 101 b 66 113 79 121 92 133 b 97 135 101 135 101 140 b 101 144 97 147 92 147 b 83 147 75 147 66 147 b 40 152 18 133 18 110 b 18 105 18 98 18 91 b 18 79 21 71 31 63 b 40 51 53 44 63 32 b 75 17 97 14 114 2 b 133 -5 145 -13 165 -13 b 175 -13 188 -10 198 -10 b 229 -13 249 2 271 14 b 303 26 319 49 332 74 b 337 79 337 83 337 88 b 345 101 351 116 354 133 b 363 147 363 167 367 182 b 373 205 367 228 367 251 b 363 261 354 273 345 286 b 332 298 315 303 297 312 b 280 323 261 328 246 335 b 241 335 232 335 223 340 z"},";":{"x_min":0,"x_max":231,"ha":231,"o":"m 65 57 b 74 38 78 20 78 2 b 74 -18 71 -30 63 -50 b 58 -58 54 -64 46 -68 b 39 -76 34 -87 34 -96 b 51 -100 65 -96 83 -87 b 90 -82 99 -76 111 -76 b 111 -76 115 -73 117 -68 b 117 -64 117 -64 122 -58 b 134 -50 147 -45 159 -35 b 166 -30 171 -23 171 -12 b 171 2 171 16 166 33 b 166 52 154 66 140 66 b 127 70 111 70 99 70 b 90 70 78 63 65 57 z m 74 127 b 83 127 87 131 94 131 b 102 127 111 123 115 118 b 127 113 134 108 147 123 b 154 127 154 135 159 145 b 165 170 154 191 140 206 b 122 216 111 220 90 220 b 83 216 71 210 65 202 b 63 188 58 177 63 164 b 63 150 63 131 74 127 z"},"J":{"x_min":0,"x_max":299,"ha":299,"o":"m 19 626 b 14 622 12 619 9 617 b -1 611 -1 607 5 597 b 12 587 20 580 32 579 b 37 579 42 578 41 569 b 39 555 37 542 37 528 b 37 496 37 463 38 430 b 38 406 40 383 41 359 b 41 346 43 332 40 319 b 39 311 39 305 41 298 b 42 295 41 291 41 287 b 40 266 39 244 39 223 b 39 197 41 171 41 146 b 41 126 39 107 39 88 b 39 56 40 25 41 -7 b 42 -19 36 -26 28 -32 b 10 -48 -9 -63 -26 -81 b -42 -99 -56 -120 -70 -139 b -92 -169 -109 -201 -104 -244 b -102 -262 -91 -272 -82 -283 b -81 -285 -76 -285 -73 -285 b -62 -283 -51 -280 -41 -281 b -31 -282 -26 -280 -19 -273 b -10 -264 2 -262 9 -251 b 9 -250 12 -252 14 -252 b 22 -253 29 -252 30 -240 b 31 -237 33 -234 35 -232 b 39 -227 44 -222 49 -217 b 53 -213 57 -206 62 -205 b 79 -203 84 -183 97 -175 b 100 -173 100 -166 101 -162 b 101 -151 101 -140 102 -129 b 102 -125 102 -120 101 -116 b 98 -107 100 -99 104 -92 b 112 -79 116 -65 111 -49 b 109 -44 114 -36 116 -30 b 119 -23 126 -17 126 -10 b 127 3 134 9 142 15 b 175 41 208 66 240 93 b 251 102 259 118 268 130 b 285 151 303 171 319 192 b 328 203 335 217 335 234 b 292 180 240 140 186 100 b 186 105 186 107 186 110 b 188 143 191 177 193 211 b 195 233 197 254 198 276 b 199 299 199 322 198 346 b 197 372 194 398 194 424 b 194 452 197 481 197 509 b 197 531 200 552 212 570 b 214 572 215 574 215 576 b 215 587 218 601 214 609 b 211 615 198 617 190 617 b 181 617 173 612 162 615 b 148 618 133 612 118 611 b 111 610 103 610 98 614 b 86 621 76 620 65 615 b 61 613 55 609 51 610 b 40 614 30 620 19 626 z m 29 -69 b 21 -98 12 -126 7 -155 b 1 -183 -13 -204 -27 -226 b -36 -240 -48 -250 -65 -249 b -80 -248 -88 -230 -81 -215 b -77 -205 -72 -195 -69 -185 b -62 -160 -48 -141 -33 -124 b -14 -104 6 -85 25 -66 b 26 -67 28 -68 29 -69 z"},"V":{"x_min":0,"x_max":368,"ha":368,"o":"m 252 331 b 250 337 235 364 234 367 b 233 373 232 379 231 385 b 227 398 222 411 219 424 b 214 449 210 473 205 498 b 201 514 196 531 195 547 b 193 571 182 591 174 612 b 167 629 163 647 163 666 b 163 677 166 689 161 698 b 151 719 136 739 110 743 b 84 747 58 751 31 737 b 15 729 -2 724 -16 711 b -27 701 -29 694 -22 682 b -18 674 -14 666 -12 657 b -7 633 -3 609 2 585 b 8 560 15 535 21 510 b 27 483 33 455 40 428 b 45 407 51 387 56 367 b 61 346 65 325 71 304 b 78 279 87 254 93 228 b 102 194 111 160 127 128 b 140 102 151 74 165 47 b 176 24 189 2 200 -21 b 204 -29 209 -34 217 -36 b 223 -38 230 -40 236 -42 b 247 -44 261 -38 262 -31 b 263 -16 264 -2 265 12 b 265 36 264 61 264 85 b 265 97 268 108 279 117 b 289 125 292 138 291 151 b 290 168 288 184 287 201 b 287 209 286 217 288 224 b 296 261 305 298 312 334 b 318 360 321 386 326 411 b 330 429 333 447 339 464 b 347 485 357 504 367 524 b 368 528 370 533 372 537 b 384 566 397 594 408 623 b 420 655 429 688 441 719 b 456 756 470 792 473 831 b 474 844 486 833 473 843 b 464 850 456 846 448 844 b 440 842 440 837 439 830 b 430 793 421 755 410 718 b 400 682 386 646 375 610 b 361 562 338 518 316 473 b 299 435 281 397 264 359 b 260 351 257 343 252 331 z"},"\"":{"x_min":0,"x_max":278,"ha":278,"o":"m 237 569 b 237 577 237 584 233 588 b 216 605 196 621 168 621 b 156 617 148 609 144 600 b 135 565 139 532 144 495 b 144 488 148 478 152 478 b 168 474 175 470 189 467 b 196 463 208 463 212 470 b 225 478 229 495 233 507 b 233 515 233 528 233 536 b 237 548 237 556 237 569 z m 42 559 b 42 544 46 532 46 519 b 46 511 46 503 54 499 b 67 491 79 484 94 478 b 104 474 111 478 115 488 b 119 495 123 503 123 507 b 123 528 119 544 115 565 b 115 580 107 592 94 600 b 90 600 90 600 90 605 b 79 613 67 621 50 613 b 46 609 42 605 42 600 b 42 584 42 569 42 559 z"},"7":{"x_min":0,"x_max":378,"ha":378,"o":"m 264 504 b 256 475 248 454 239 429 b 223 387 202 345 185 303 b 177 291 168 278 164 261 b 152 236 139 207 131 178 b 118 149 106 123 97 94 b 89 69 85 48 76 23 b 72 2 72 -15 68 -35 b 64 -44 68 -56 51 -61 b 51 -65 51 -69 51 -69 b 55 -69 55 -69 55 -69 b 72 -69 85 -69 101 -81 b 106 -81 114 -86 118 -86 b 131 -90 139 -86 143 -77 b 147 -73 147 -65 152 -56 b 156 -44 156 -31 160 -19 b 172 15 185 48 198 82 b 202 98 210 119 218 136 b 227 153 235 165 239 182 b 248 199 248 211 256 228 b 264 245 277 261 285 282 b 294 303 306 328 315 353 b 323 374 327 395 336 416 b 340 429 344 445 352 458 b 361 475 365 496 365 512 b 369 517 365 525 365 529 b 361 546 336 550 319 546 b 310 546 298 546 285 542 b 281 542 281 542 277 542 b 269 537 264 537 256 537 b 227 533 198 529 168 529 b 143 525 118 525 93 525 b 80 525 64 525 51 525 b 39 525 30 525 18 517 b 14 512 9 504 5 496 b 1 491 1 487 5 483 b 9 479 18 475 22 471 b 30 462 39 450 43 437 b 47 420 55 404 72 391 b 80 387 89 391 93 395 b 97 404 97 408 93 416 b 93 416 89 420 89 420 b 76 441 68 458 60 475 b 55 479 55 479 55 483 b 126 500 193 496 264 504 z"},"S":{"x_min":0,"x_max":438,"ha":438,"o":"m 164 381 b 179 391 194 396 200 406 b 207 418 216 424 227 430 b 231 432 236 433 239 437 b 272 470 298 509 312 553 b 322 586 325 620 331 654 b 332 658 330 663 328 667 b 315 690 293 699 267 700 b 254 700 239 695 225 691 b 216 689 206 687 200 681 b 168 655 138 628 106 601 b 54 557 33 504 49 441 b 52 428 55 415 58 399 b 28 401 0 402 -28 404 b -30 401 -32 398 -34 395 b -30 394 -27 392 -23 391 b 4 386 31 377 58 376 b 71 375 75 371 79 362 b 84 352 87 342 93 332 b 111 303 130 274 147 244 b 165 214 185 186 193 150 b 199 125 209 100 216 75 b 217 72 214 66 211 64 b 192 52 172 40 152 29 b 98 1 39 -18 -9 -58 b -30 -75 -51 -92 -65 -114 b -87 -147 -75 -182 -68 -216 b -68 -219 -65 -222 -62 -225 b -55 -233 -47 -241 -40 -249 b -29 -262 -17 -269 2 -260 b 9 -257 18 -256 25 -258 b 59 -271 95 -259 128 -250 b 159 -241 188 -220 216 -203 b 249 -183 281 -161 313 -140 b 320 -136 328 -131 333 -125 b 355 -97 373 -68 379 -33 b 387 14 384 59 370 104 b 368 110 370 121 374 126 b 389 141 406 153 421 168 b 438 185 454 203 470 221 b 473 224 474 228 477 236 b 435 208 396 183 360 159 b 338 192 317 220 298 250 b 280 279 256 304 230 326 b 208 344 187 362 164 381 z m 219 16 b 221 -14 220 -42 200 -70 b 179 -99 162 -130 142 -160 b 118 -196 84 -214 41 -214 b 23 -214 5 -215 -13 -213 b -36 -210 -48 -191 -61 -174 b -66 -168 -68 -158 -55 -152 b -51 -150 -46 -146 -44 -142 b -21 -98 22 -76 60 -50 b 91 -28 125 -15 161 -6 b 180 -1 198 8 219 16 z m 139 522 b 144 531 148 541 154 550 b 168 571 181 593 198 611 b 213 627 231 642 250 651 b 274 662 299 648 302 618 b 305 578 292 540 270 505 b 256 482 237 462 220 440 b 214 432 207 435 199 433 b 188 431 177 423 166 419 b 158 416 152 413 153 429 b 154 447 144 465 141 484 b 139 495 140 507 139 522 z"},"}":{"x_min":0,"x_max":358,"ha":358,"o":"m 71 679 b 71 667 83 679 91 679 b 116 687 116 679 128 667 b 128 610 128 566 128 522 b 128 477 116 433 128 389 b 128 377 128 377 128 377 b 136 332 136 296 160 264 b 172 252 172 252 160 244 b 136 219 128 187 128 151 b 128 74 128 6 128 -71 b 128 -71 128 -83 128 -95 b 116 -139 104 -147 59 -159 b 59 -159 47 -171 47 -171 b 39 -171 27 -171 27 -183 b 39 -204 59 -216 83 -204 b 83 -204 91 -204 91 -204 b 128 -204 148 -216 184 -192 b 192 -183 204 -171 216 -147 b 216 -103 228 -59 236 -14 b 236 -14 236 -14 236 -2 b 236 18 236 42 228 50 b 228 74 228 99 236 107 b 249 131 261 151 273 175 b 273 195 281 219 305 244 b 293 244 281 252 281 252 b 273 264 273 276 261 288 b 261 296 249 320 249 340 b 249 377 261 409 261 441 b 273 453 273 465 273 465 b 273 534 249 586 216 630 b 192 679 148 699 104 699 b 91 699 83 687 71 679 z"},"Z":{"x_min":0,"x_max":391,"ha":391,"o":"m 1016 -39 b 1014 -39 1012 -39 1010 -39 b 1000 -39 990 -44 987 -46 b 977 -52 965 -59 953 -66 b 933 -78 911 -90 889 -100 b 874 -107 856 -113 838 -119 b 826 -122 814 -126 802 -130 b 755 -148 708 -156 660 -156 b 651 -156 640 -156 630 -155 b 625 -155 619 -155 614 -154 b 604 -154 594 -153 586 -153 b 568 -150 550 -147 533 -144 b 515 -142 498 -139 480 -137 b 450 -132 420 -116 390 -99 b 377 -92 364 -84 351 -80 b 319 -65 288 -48 258 -30 b 249 -26 240 -20 230 -16 b 217 -9 206 -2 195 6 b 187 10 180 15 172 18 b 159 26 146 33 133 41 b 161 71 196 109 204 118 b 217 136 229 155 243 173 b 250 183 257 193 263 204 b 272 218 281 232 288 247 b 296 262 300 279 307 294 b 327 338 347 383 367 428 b 380 455 394 484 406 510 b 415 531 425 552 433 573 b 445 602 426 640 396 646 b 378 650 359 651 341 649 b 301 646 263 641 225 636 b 198 633 170 628 141 625 b 122 623 103 623 83 622 b 69 622 55 622 40 619 b 35 618 32 611 25 605 b 34 602 38 602 43 601 b 58 595 73 601 87 600 b 110 597 132 599 155 602 b 187 609 219 612 252 616 b 267 619 283 620 301 622 b 298 616 298 613 296 611 b 281 582 266 553 252 522 b 237 491 224 458 206 426 b 181 375 151 324 122 274 b 98 231 70 190 46 147 b 30 119 16 90 2 62 b -1 54 -3 45 -14 47 b -14 47 -16 45 -16 44 b -22 34 -26 24 -32 16 b -39 4 -37 -5 -27 -14 b -14 -25 -4 -26 7 -20 b 17 -16 29 -12 41 -10 b 50 -8 60 -7 70 -6 b 82 -15 94 -23 106 -31 b 129 -48 153 -65 179 -81 b 224 -109 272 -130 320 -144 b 356 -153 393 -161 434 -168 b 466 -174 498 -177 533 -181 b 571 -185 610 -189 651 -189 b 671 -189 689 -188 707 -186 b 712 -185 719 -185 725 -184 b 765 -179 803 -176 840 -163 b 873 -151 906 -136 948 -117 b 973 -106 997 -93 1014 -75 b 1016 -77 1017 -78 1020 -78 b 1026 -78 1031 -74 1032 -65 b 1032 -56 1026 -43 1016 -39 z"},"x":{"x_min":0,"x_max":372,"ha":372,"o":"m 393 194 b 393 193 392 192 392 192 b 387 175 377 161 368 147 b 359 132 349 117 339 103 b 336 97 333 92 329 87 b 325 82 322 78 318 74 b 313 68 299 66 293 84 l 293 84 b 291 88 290 91 288 94 b 281 107 276 121 266 131 b 255 143 238 164 228 177 b 227 178 226 180 225 181 b 219 188 214 196 212 205 b 211 208 212 212 213 214 b 218 221 223 227 228 233 b 233 239 231 237 236 243 l 247 263 b 249 268 253 274 257 278 b 265 287 264 286 268 297 b 268 297 281 329 292 340 b 295 343 298 349 298 353 b 298 362 302 366 295 371 b 294 371 291 370 291 369 b 287 361 283 353 280 345 b 273 332 267 319 260 307 b 252 291 249 287 240 272 b 237 268 233 263 228 257 b 220 246 212 236 203 225 b 202 227 201 228 201 230 b 197 237 193 245 188 252 b 174 276 159 298 137 314 b 131 318 123 318 115 319 b 112 320 108 320 105 321 b 91 323 86 309 76 301 b 67 293 59 283 51 272 b 40 257 30 241 19 225 b 2 200 -14 174 -24 144 b -28 134 -33 129 -19 129 b -12 143 -5 157 2 171 b 12 189 21 207 33 224 b 43 240 54 255 66 269 b 74 279 83 280 89 274 b 90 273 91 272 91 271 l 91 271 b 92 270 92 269 93 269 b 94 267 95 266 95 264 b 104 246 112 228 120 210 b 130 191 139 172 149 152 b 148 150 146 147 144 145 b 129 125 127 123 112 104 b 105 94 112 102 104 92 b 99 85 92 79 87 71 b 80 60 73 49 67 38 b 66 36 64 33 65 32 b 66 30 68 30 70 30 b 75 29 78 33 81 39 b 89 54 101 65 113 77 b 135 99 129 90 147 118 b 150 124 154 130 159 137 b 162 132 164 128 166 125 b 176 111 187 97 196 82 b 202 71 208 60 216 51 b 217 50 217 49 218 48 b 223 37 227 26 232 16 b 235 11 237 9 241 10 b 245 8 249 7 253 5 b 261 2 270 2 277 9 b 282 14 288 19 293 24 b 299 29 304 35 309 40 b 315 48 321 57 328 65 b 338 77 348 88 354 102 b 356 106 358 110 360 114 b 367 125 373 135 379 146 b 384 155 387 165 392 174 b 396 181 397 187 393 194 z"},")":{"x_min":0,"x_max":275,"ha":275,"o":"m 44 665 b 44 660 49 660 54 655 b 59 645 74 635 79 625 b 88 601 98 571 103 546 b 108 512 113 472 118 437 b 123 403 123 373 123 338 b 123 308 123 274 123 244 b 123 224 123 204 118 185 b 118 165 118 140 113 120 b 108 91 103 61 93 36 b 83 6 74 -23 64 -53 b 54 -68 49 -83 39 -98 b 34 -108 29 -122 34 -127 b 49 -127 64 -137 74 -132 b 83 -127 93 -112 108 -103 b 108 -103 113 -98 108 -98 b 108 -83 118 -83 123 -78 b 128 -73 133 -73 138 -68 b 143 -58 153 -43 158 -33 b 168 -18 173 -4 178 6 b 183 26 192 41 197 56 b 202 66 207 81 207 91 b 212 110 212 125 217 145 b 227 185 232 224 232 264 b 237 269 237 274 237 279 b 237 304 237 328 237 353 b 232 378 227 398 222 422 b 222 447 217 467 207 487 b 197 512 187 536 178 556 b 173 566 168 581 163 591 b 153 601 143 616 128 625 b 113 640 93 650 74 660 b 64 665 54 670 44 665 z"},"&":{"x_min":0,"x_max":516,"ha":516,"o":"m 136 344 b 126 339 116 334 112 329 b 92 319 77 305 63 290 b 43 270 28 246 19 217 b 9 182 -1 148 4 114 b 14 75 28 40 58 16 b 82 -13 116 -33 146 -53 b 161 -58 175 -67 190 -67 b 210 -72 229 -72 249 -77 b 283 -82 317 -77 347 -62 b 366 -58 381 -53 396 -43 b 405 -38 410 -33 410 -18 b 410 -13 415 -9 420 -9 b 430 1 440 6 449 11 b 454 21 459 26 464 31 b 469 45 484 138 464 197 b 454 207 449 222 445 236 b 440 241 435 251 435 256 b 435 270 425 275 420 280 b 410 290 396 290 396 305 b 396 310 391 319 386 324 b 386 324 391 324 391 324 b 410 324 430 324 445 334 b 459 339 474 339 489 334 b 493 334 498 329 503 329 b 523 324 542 334 542 354 b 542 364 533 373 528 378 b 518 393 498 398 484 403 b 474 403 464 403 454 403 b 435 398 420 398 400 393 b 386 393 371 383 356 378 b 347 373 337 368 327 364 b 312 364 293 364 273 364 b 263 364 254 364 239 349 b 244 349 249 344 254 344 b 263 339 273 334 288 329 b 298 329 307 329 307 315 b 307 315 312 310 317 310 b 322 305 327 300 337 295 b 351 285 361 270 371 251 b 386 226 400 207 405 177 b 405 168 405 153 405 143 b 405 129 400 119 400 104 b 400 70 386 45 366 21 b 342 -9 312 -18 278 -23 b 229 -28 185 -9 146 16 b 136 26 126 35 116 45 b 97 70 92 89 102 119 b 102 124 102 133 102 138 b 102 148 102 163 102 173 b 107 192 116 212 131 231 b 146 246 156 261 156 275 b 156 290 161 300 165 310 b 175 300 190 290 200 280 b 205 275 214 266 219 251 b 219 251 224 246 229 246 b 244 241 254 236 263 226 b 278 217 293 217 307 217 b 327 222 332 236 322 246 b 317 256 307 261 303 266 b 278 290 258 315 234 339 b 214 359 190 378 185 412 b 185 422 175 427 170 437 b 161 452 156 471 156 496 b 156 520 156 545 185 559 b 205 569 219 569 234 559 b 244 554 249 545 249 540 b 239 520 234 505 214 496 b 210 496 210 491 205 491 b 205 491 205 491 205 486 b 214 486 219 481 229 481 b 239 481 249 486 258 486 b 268 486 283 505 278 515 b 278 525 278 535 278 550 b 278 564 278 584 258 594 b 244 603 224 613 210 618 b 190 623 175 618 161 613 b 151 608 141 603 136 599 b 112 594 92 584 77 569 b 53 545 48 510 58 481 b 63 471 63 466 63 461 b 72 442 82 427 92 412 b 97 403 102 393 112 383 b 116 368 126 359 136 344 z"},"_":{"x_min":0,"x_max":416,"ha":416,"o":"m 65 87 b 55 79 55 72 55 64 b 65 47 74 39 83 39 b 141 16 199 16 257 24 b 265 24 275 24 285 24 b 304 16 322 16 343 16 b 361 24 361 32 361 39 b 361 47 351 47 351 55 b 322 72 294 72 275 79 b 275 79 265 79 265 79 b 265 79 257 79 246 79 b 217 87 180 87 151 79 b 141 79 131 79 113 79 b 103 79 83 87 65 87 z"},"v":{"x_min":0,"x_max":321,"ha":321,"o":"m 195 95 b 194 97 192 99 192 100 b 187 113 183 125 179 138 b 174 152 169 167 164 181 b 160 193 157 205 152 216 b 146 231 139 245 133 260 b 127 275 121 291 111 305 b 101 318 91 331 73 336 b 68 338 62 340 56 341 b 44 344 32 344 21 340 b 13 337 5 333 -3 328 b -15 321 -15 317 -9 306 b -5 298 -1 291 2 283 b 6 275 8 267 12 259 b 18 244 25 230 31 215 b 37 197 41 179 46 162 b 52 143 59 125 65 107 b 71 90 78 74 84 57 b 86 53 88 49 89 45 b 92 35 98 28 106 24 b 114 20 122 17 131 15 b 144 12 159 10 173 8 b 182 7 191 9 199 15 b 205 19 210 24 208 32 b 207 37 205 41 205 45 b 206 50 206 56 209 61 b 212 67 212 86 215 92 b 223 108 230 123 238 138 b 249 158 260 178 271 198 b 278 211 284 224 291 237 b 302 257 313 277 324 297 b 328 304 331 311 333 318 b 336 327 339 337 341 346 b 342 347 343 348 344 349 b 348 355 352 360 355 366 b 359 373 361 382 365 389 b 370 399 378 392 368 401 b 365 403 365 404 362 401 b 355 390 348 379 341 368 b 332 353 323 338 314 322 b 306 309 300 295 292 282 b 286 270 278 258 273 246 b 260 218 244 191 229 164 b 222 152 217 141 211 129 b 206 118 201 107 195 95 z"},"O":{"x_min":0,"x_max":499,"ha":499,"o":"m 327 628 b 337 617 318 639 327 628 b 334 620 339 610 347 602 b 351 599 360 597 364 599 b 374 605 381 615 378 627 b 374 642 369 658 361 671 b 344 695 321 715 296 732 b 282 742 266 738 251 738 b 245 738 238 737 232 734 b 224 731 216 726 209 721 b 181 701 151 684 126 661 b 103 640 84 613 65 587 b 53 571 38 555 32 536 b 20 505 12 472 7 440 b 1 406 1 371 -2 337 b -4 304 -3 271 6 239 b 14 209 22 180 32 151 b 41 127 51 103 64 82 b 82 53 102 26 127 4 b 141 -10 156 -24 172 -35 b 193 -49 217 -59 244 -59 b 272 -59 300 -57 322 -41 b 339 -30 351 -14 364 2 b 377 19 389 37 401 55 b 406 63 413 71 417 80 b 428 105 438 130 448 156 b 454 170 460 185 463 200 b 469 226 474 253 478 280 b 481 297 482 314 482 331 b 480 369 476 408 473 446 b 472 457 473 470 469 480 b 457 521 443 562 428 602 b 425 609 416 615 409 619 b 404 621 398 617 400 609 b 407 577 415 545 421 512 b 426 486 430 460 435 434 b 437 424 442 415 443 405 b 445 366 445 327 440 288 b 435 243 427 199 411 156 b 392 106 370 57 336 15 b 325 2 311 -12 289 -7 b 282 -6 274 -4 268 -6 b 237 -15 262 4 246 23 b 228 45 214 70 200 94 b 176 132 161 173 158 218 b 157 233 157 247 157 262 b 157 285 156 309 159 332 b 162 356 170 379 175 403 b 177 415 177 427 180 438 b 184 453 193 466 197 481 b 208 522 230 556 257 588 b 268 601 277 619 298 621 b 300 621 301 624 302 625 b 316 636 311 616 327 628 z"},"(":{"x_min":0,"x_max":354,"ha":354,"o":"m 284 583 b 284 588 284 588 284 588 b 277 592 277 602 265 611 b 265 611 258 611 253 611 b 241 602 228 588 216 579 b 195 559 183 541 173 521 b 158 492 140 465 127 437 b 115 417 108 393 103 370 b 96 352 96 332 91 314 b 91 300 91 286 84 272 b 84 242 84 219 84 191 b 84 163 91 135 96 106 b 96 88 103 68 108 50 b 115 25 127 2 134 -21 b 146 -63 165 -101 195 -135 b 207 -149 228 -163 253 -163 b 258 -163 265 -158 272 -153 b 277 -153 272 -149 272 -144 b 258 -130 241 -120 234 -97 b 234 -97 234 -97 234 -97 b 228 -88 222 -74 228 -60 b 241 -35 246 -16 241 12 b 228 30 228 50 222 74 b 207 100 207 130 207 163 b 203 172 207 191 216 205 b 216 228 222 251 228 277 b 228 295 241 318 241 337 b 246 376 246 408 246 446 b 246 469 246 488 258 507 b 265 527 272 550 277 574 b 284 579 284 583 284 583 z"},"C":{"x_min":0,"x_max":474,"ha":474,"o":"m 530 289 b 519 264 510 239 498 217 b 481 188 462 160 442 133 b 423 108 403 82 380 62 b 345 32 300 21 256 10 b 248 8 239 5 230 5 b 193 9 171 30 161 67 b 159 76 155 85 151 93 b 144 114 132 135 129 156 b 124 197 118 239 125 280 b 126 292 125 304 126 316 b 127 325 127 335 142 335 b 151 334 160 338 169 341 b 209 354 251 364 279 399 b 288 409 295 420 304 430 b 316 443 327 457 330 476 b 332 482 330 491 334 496 b 349 521 346 547 344 573 b 342 586 343 601 332 610 b 326 615 319 618 315 624 b 295 646 271 656 242 657 b 216 659 192 653 171 641 b 153 630 136 617 120 604 b 110 596 102 586 92 578 b 85 572 82 558 68 561 b 67 561 67 560 66 559 b 68 557 70 555 71 553 b 39 500 13 454 7 367 b 6 367 5 366 5 367 b 2 370 -1 375 -4 378 b -31 404 -38 436 -30 471 b -25 492 -14 512 -7 533 b -1 554 5 575 10 596 b 10 599 5 603 2 606 b 1 606 -5 603 -6 600 b -15 584 -23 567 -33 551 b -50 521 -57 488 -60 455 b -64 410 -38 378 -6 351 b 3 344 8 339 7 328 b 5 317 4 306 5 296 b 8 266 10 237 16 209 b 29 156 42 110 80 71 b 113 36 135 5 183 -11 b 224 -25 260 -16 297 -3 b 321 6 345 17 368 29 b 381 36 394 46 405 57 b 421 74 434 96 451 111 b 498 150 517 203 528 260 b 532 281 554 284 530 289 z m 321 563 b 317 537 313 511 309 484 b 310 484 313 485 318 486 b 277 411 215 371 130 355 b 135 371 137 385 143 398 b 155 426 169 453 184 480 b 191 493 204 503 213 515 b 222 527 228 541 238 554 b 247 566 257 576 268 587 b 269 588 275 587 276 585 b 285 568 303 570 321 563 z"},"W":{"x_min":0,"x_max":563,"ha":563,"o":"m 207 197 b 201 218 195 240 188 260 b 177 294 163 327 153 362 b 140 404 130 449 118 492 b 108 530 107 571 87 605 b 76 624 64 639 43 645 b 14 654 -51 642 -72 607 b -74 604 -76 601 -79 600 b -90 594 -88 585 -80 580 b -60 562 -57 538 -50 516 b -42 491 -39 463 -32 437 b -25 407 -15 378 -6 349 b 2 327 11 306 17 284 b 30 243 41 200 54 159 b 60 136 71 115 78 93 b 91 57 101 20 113 -16 b 115 -23 120 -31 125 -34 b 166 -59 225 -34 235 14 b 235 15 236 18 235 20 b 225 53 235 85 239 116 b 244 161 262 203 282 243 b 286 251 289 261 290 271 b 293 291 295 312 297 332 b 303 313 306 293 311 274 b 319 239 329 204 339 167 b 344 151 345 134 352 117 b 364 86 380 57 381 24 b 382 15 388 8 400 10 b 414 12 428 12 441 14 b 488 16 525 51 510 105 b 503 129 501 154 499 178 b 498 190 503 203 500 214 b 493 252 490 289 498 326 b 506 368 510 411 523 452 b 540 502 570 545 604 585 b 631 617 661 649 699 670 b 730 689 760 710 792 724 b 823 738 857 742 891 745 b 917 748 928 732 918 707 b 917 702 914 698 911 693 b 908 689 905 684 901 676 b 912 674 921 670 930 670 b 952 670 966 688 960 709 b 958 716 954 722 952 729 b 946 756 923 774 896 774 b 851 774 808 762 768 745 b 678 708 610 642 550 567 b 521 531 507 487 490 444 b 478 408 469 370 458 332 b 458 332 458 333 457 334 b 452 358 448 382 444 406 b 437 451 412 480 373 498 b 352 507 331 508 309 501 b 300 499 293 489 284 486 b 273 483 275 477 275 470 b 274 454 275 439 272 423 b 265 383 254 344 247 304 b 240 267 226 232 207 197 z"},"A":{"x_min":0,"x_max":545,"ha":545,"o":"m 570 242 b 569 238 568 235 567 232 b 560 212 553 191 545 171 b 534 142 519 115 510 85 b 502 61 484 47 465 33 b 461 30 454 29 448 30 b 427 33 412 46 398 61 b 393 67 393 71 395 78 b 396 85 396 92 396 100 b 397 104 396 109 396 113 b 395 129 394 144 395 159 b 396 169 385 179 396 189 b 405 197 404 207 402 218 b 395 247 389 275 382 304 b 381 311 381 316 389 319 b 402 324 413 331 425 338 b 433 343 441 345 450 340 b 456 337 463 336 469 336 b 481 335 485 341 481 352 b 476 364 447 375 433 370 b 415 363 397 356 379 349 b 373 347 369 347 368 354 b 367 359 365 365 364 370 b 354 414 344 458 335 501 b 332 518 331 536 330 553 b 329 575 323 595 305 607 b 287 620 265 624 242 615 b 236 612 229 611 223 611 b 198 614 178 603 159 590 b 147 581 144 570 141 557 b 138 540 134 522 131 505 b 128 482 120 462 112 440 b 105 420 99 398 96 375 b 92 336 81 298 72 259 b 71 250 67 246 56 246 b 39 247 23 245 6 245 b -2 245 -11 247 -18 250 b -30 256 -42 264 -54 271 b -75 284 -99 283 -123 281 b -126 281 -129 278 -132 276 b -130 274 -129 271 -127 269 b -112 255 -97 242 -82 229 b -79 227 -77 225 -74 224 b -34 199 10 195 58 201 b 41 95 26 -11 -6 -113 b -8 -109 -8 -105 -8 -101 b -9 -85 -9 -68 -11 -52 b -12 -43 -28 -35 -38 -37 b -48 -40 -44 -49 -46 -56 b -47 -59 -46 -63 -46 -67 b -49 -88 -49 -108 -42 -128 b -36 -145 -23 -157 -5 -158 b 10 -158 20 -147 25 -134 b 32 -118 36 -101 44 -86 b 56 -62 62 -38 63 -12 b 64 6 69 24 72 41 b 77 66 83 90 85 115 b 87 134 83 153 83 172 b 83 201 89 205 117 211 b 139 216 160 222 182 228 b 201 234 220 241 239 248 b 246 250 252 248 251 242 b 251 228 259 217 263 204 b 272 175 282 146 292 118 b 299 97 305 77 312 57 b 313 54 316 52 318 50 b 322 47 328 45 330 41 b 338 28 349 21 362 13 b 383 2 405 1 427 -1 b 457 -5 479 14 502 29 b 505 32 509 36 511 40 b 520 58 531 77 539 96 b 553 134 567 173 578 211 b 581 220 586 234 570 242 z m 109 249 b 112 271 116 292 118 312 b 119 330 115 349 119 366 b 125 395 135 423 143 452 b 149 472 155 491 161 511 b 163 517 167 522 171 532 b 201 449 217 366 240 283 b 197 269 157 247 109 249 z"},"f":{"x_min":0,"x_max":232,"ha":232,"o":"m 268 262 b 262 263 262 257 260 253 b 252 241 244 227 235 215 b 221 199 206 184 191 170 b 181 160 160 146 149 136 b 149 136 150 158 150 158 b 150 162 151 166 152 170 b 153 198 155 226 156 254 b 157 260 159 266 163 271 b 171 280 177 289 180 301 b 182 310 185 320 189 328 b 199 349 207 370 211 392 b 213 401 216 410 216 419 b 216 436 214 454 213 472 b 212 477 211 482 210 487 b 208 498 207 509 205 520 b 204 527 203 535 201 542 b 200 547 196 551 196 555 b 194 568 186 577 177 585 b 173 588 170 594 165 595 b 154 596 143 596 132 589 b 123 584 118 575 111 567 b 100 554 92 539 88 522 b 84 506 82 489 79 473 b 77 466 75 459 75 452 b 73 432 71 411 70 391 b 68 359 67 326 66 294 b 65 276 65 258 66 241 b 66 205 68 170 69 134 b 69 121 70 108 69 95 b 69 94 68 89 68 88 b 68 85 67 84 65 81 b 59 73 61 65 55 56 b 45 39 34 22 24 4 b 14 -14 5 -32 -4 -52 b -11 -67 -16 -83 -22 -99 b -29 -117 -32 -137 -28 -158 b -25 -181 -18 -202 -7 -221 b -5 -225 -1 -229 3 -232 b 7 -236 12 -239 16 -243 b 29 -256 44 -258 57 -252 b 67 -248 74 -238 81 -228 b 88 -220 92 -208 98 -198 b 104 -189 110 -180 116 -170 b 120 -165 122 -158 126 -156 b 133 -154 135 -147 137 -141 b 141 -130 144 -119 147 -109 b 148 -107 148 -105 149 -102 b 150 -90 152 -78 154 -66 b 155 -57 155 -47 155 -37 b 154 -31 153 -24 152 -18 b 150 -9 148 -1 145 7 b 142 16 139 23 135 31 b 132 38 131 46 129 53 b 127 57 129 62 130 65 b 130 75 131 67 128 78 b 128 78 128 78 128 79 b 126 86 126 93 135 99 b 144 106 150 116 158 124 b 166 132 183 140 191 147 b 199 154 207 161 215 168 b 221 175 227 183 233 190 b 242 199 251 208 260 217 b 268 225 274 235 277 247 b 278 251 272 262 268 262 z m 157 367 b 158 381 162 396 161 410 b 160 428 163 445 165 462 b 166 465 165 468 165 471 b 165 480 164 489 163 499 b 163 503 165 506 165 510 b 166 520 167 529 170 539 b 173 528 177 516 178 504 b 184 438 185 371 155 308 b 155 311 154 315 154 319 b 155 335 156 351 157 367 z m 83 -52 b 82 -65 82 -77 81 -90 b 80 -104 79 -118 76 -131 b 73 -149 68 -166 64 -183 b 63 -188 59 -191 56 -195 b 54 -199 51 -202 49 -205 b 45 -211 40 -212 34 -211 b 29 -210 23 -211 18 -210 b 8 -209 0 -204 -9 -196 b -20 -186 -22 -173 -21 -160 b -21 -151 -16 -143 -13 -134 b -12 -131 -11 -128 -9 -125 b -2 -109 5 -93 13 -78 b 19 -66 25 -56 31 -45 b 38 -32 44 -18 50 -6 b 56 6 63 17 69 28 b 73 34 76 40 80 46 b 80 46 81 46 81 46 b 81 33 81 21 82 8 b 82 -4 84 -16 84 -28 b 84 -36 83 -44 83 -52 z"},"Q":{"x_min":0,"x_max":580,"ha":580,"o":"m 573 -55 b 557 -58 543 -50 533 -44 b 530 -41 526 -39 522 -37 b 515 -35 506 -30 503 -25 b 493 -9 485 8 476 24 b 475 27 473 30 474 32 b 479 46 485 58 490 72 b 497 93 504 114 508 135 b 513 155 509 177 527 194 b 528 194 528 196 528 198 b 530 229 534 260 534 290 b 534 313 530 336 527 359 b 525 376 525 394 520 411 b 513 437 503 463 492 488 b 481 513 465 536 455 561 b 444 589 417 601 394 618 b 391 620 383 617 377 616 b 377 611 377 606 379 602 b 388 592 399 584 407 574 b 425 552 439 528 448 502 b 460 466 472 431 484 396 b 498 352 503 307 503 261 b 502 243 504 224 502 206 b 499 181 494 156 486 132 b 478 106 467 82 457 57 b 455 56 453 56 452 56 b 447 62 443 67 438 73 b 427 87 416 104 395 108 b 380 110 365 113 351 114 b 332 114 316 105 300 95 b 290 88 288 77 282 69 b 275 59 278 53 289 49 b 297 46 307 44 311 39 b 331 18 349 -5 370 -30 b 352 -31 373 -32 358 -33 b 349 -34 339 -37 331 -35 b 308 -26 286 -14 263 -4 b 240 7 222 24 210 45 b 196 68 186 93 170 114 b 151 139 149 165 151 192 b 154 224 161 256 166 288 b 167 294 167 300 169 306 b 177 324 185 341 192 359 b 201 379 211 400 215 421 b 223 461 243 496 262 531 b 276 556 292 614 300 617 b 305 618 310 622 315 623 b 316 623 316 623 317 623 b 318 623 319 622 320 622 b 332 618 345 617 357 615 b 361 614 366 613 368 615 b 370 618 371 623 370 626 b 369 632 365 637 363 642 b 357 654 341 664 327 664 b 308 663 288 662 269 664 b 253 666 240 657 225 656 b 212 655 200 652 189 647 b 187 647 185 647 184 646 b 164 645 146 641 132 626 b 124 617 112 610 106 601 b 85 568 64 535 52 499 b 45 476 35 454 26 431 b 20 414 14 396 8 378 b 4 363 -1 347 -5 330 b -7 317 -8 303 -10 289 b -11 267 -14 244 -14 222 b -14 195 -5 170 5 145 b 19 108 37 74 61 43 b 68 34 75 26 83 18 b 119 -14 162 -38 206 -59 b 222 -67 241 -69 259 -73 b 275 -76 292 -78 309 -81 b 339 -87 368 -86 393 -61 b 413 -82 433 -102 452 -123 b 462 -135 467 -138 476 -133 b 488 -126 500 -120 512 -114 b 518 -111 524 -109 529 -106 l 529 -106 b 529 -106 566 -97 577 -86 b 588 -74 590 -62 590 -55 b 590 -48 594 -51 573 -55 z"},"w":{"x_min":0,"x_max":431,"ha":431,"o":"m 490 300 b 488 295 487 291 486 289 b 468 261 444 240 417 222 b 412 219 405 216 399 214 b 392 212 387 216 387 223 b 387 230 388 236 388 242 b 388 257 387 272 386 287 b 385 291 383 296 381 297 b 371 301 361 308 349 302 b 347 302 344 302 342 303 b 334 307 328 305 326 297 b 324 290 324 282 324 275 b 326 253 334 234 352 220 b 353 219 355 217 355 216 b 355 210 356 204 355 199 b 349 178 341 158 339 136 b 337 122 330 109 330 95 b 329 78 320 64 312 50 b 308 45 305 40 300 35 b 299 33 294 33 293 34 b 287 38 287 49 292 55 b 294 57 295 59 296 61 b 298 72 300 82 303 93 b 305 100 307 108 308 116 b 309 120 310 124 309 128 b 308 135 305 141 303 148 b 301 157 302 166 299 174 b 293 188 286 201 280 214 b 276 228 269 240 259 251 b 248 262 238 277 221 280 b 206 282 188 278 181 263 b 179 259 177 255 174 253 b 170 250 170 246 171 241 b 173 228 178 214 173 200 b 166 178 159 156 151 135 b 151 134 150 132 149 132 b 148 133 147 134 147 135 b 141 152 135 169 130 187 b 124 208 118 230 112 251 b 108 267 106 282 101 298 b 99 306 95 314 90 320 b 84 328 76 334 66 337 b 47 343 30 349 10 347 b -1 346 -15 336 -15 327 b -15 319 -12 312 -11 305 b -7 291 -2 277 1 262 b 4 250 5 236 8 223 b 11 207 16 191 21 175 b 25 160 28 145 32 130 b 35 120 35 110 42 101 b 46 97 50 93 53 88 b 60 77 66 66 72 55 b 76 48 81 41 84 34 b 88 22 94 14 107 11 b 110 11 114 9 118 9 b 129 9 140 7 149 14 b 154 18 158 24 161 30 b 163 32 166 36 166 39 b 165 53 164 67 163 82 b 163 84 162 87 162 90 b 165 98 167 105 170 113 b 176 127 181 141 187 155 b 187 155 188 155 189 155 b 190 150 190 146 191 142 b 196 128 202 115 207 101 b 215 80 229 63 243 46 b 254 33 269 22 287 17 b 303 12 324 20 331 35 b 336 46 342 56 348 67 b 354 79 362 91 365 104 b 370 124 371 145 373 166 b 375 180 376 193 383 206 b 396 200 409 200 420 208 b 441 222 463 236 479 256 b 487 267 491 280 493 293 b 493 294 492 296 490 300 z m 356 237 b 348 250 347 266 343 281 b 351 278 359 250 356 237 z"},"-":{"x_min":0,"x_max":395,"ha":395,"o":"m 326 250 b 326 265 318 274 311 284 b 299 293 288 298 281 312 b 278 322 274 317 270 312 b 266 312 263 308 259 308 b 251 308 244 312 236 312 b 221 312 209 317 194 317 b 176 317 161 317 142 317 b 131 317 119 317 108 317 b 98 317 83 312 71 317 b 67 322 60 317 60 317 b 56 312 56 303 60 298 b 64 288 67 274 75 265 b 86 255 98 250 108 241 b 119 231 135 231 150 231 b 165 236 176 236 188 236 b 202 236 217 231 232 231 b 255 231 274 231 296 231 b 303 231 311 236 318 241 b 322 241 322 245 326 250 z"},"E":{"x_min":0,"x_max":422,"ha":422,"o":"m 453 228 b 420 195 411 165 396 146 b 376 121 355 108 334 85 b 330 81 315 68 311 66 b 278 56 246 45 214 36 b 187 29 159 26 132 21 b 125 20 120 23 115 29 b 104 44 96 59 92 77 b 86 101 82 124 87 147 b 90 161 98 174 102 187 b 107 210 113 232 128 250 b 133 257 140 264 147 271 b 172 296 197 321 223 346 b 225 348 228 350 232 350 b 243 353 255 353 266 356 b 272 358 277 365 283 369 b 276 373 271 380 264 382 b 252 386 240 386 228 388 b 217 391 206 396 195 396 b 166 396 160 407 164 435 b 165 440 166 445 165 450 b 157 485 168 517 178 549 b 180 555 182 561 186 565 b 188 568 192 570 195 570 b 215 571 234 571 254 572 b 279 574 295 591 304 612 b 312 632 320 654 299 673 b 289 681 281 694 269 698 b 250 705 229 710 209 698 b 206 696 202 696 198 694 b 182 684 162 681 148 666 b 143 660 136 656 129 650 b 128 667 128 681 125 696 b 124 701 118 706 113 710 b 112 711 107 710 106 709 b 97 695 91 681 96 665 b 100 653 105 642 110 630 b 109 630 109 629 108 629 b 107 628 105 628 104 627 b 74 594 49 557 44 509 b 41 472 52 440 74 411 b 83 399 94 388 103 377 b 95 369 88 363 80 357 b 50 334 23 309 7 275 b -9 244 -24 212 -28 177 b -31 146 -27 115 -13 87 b 6 49 37 23 74 4 b 93 -5 114 -13 136 -10 b 150 -8 163 -6 177 -3 b 197 1 216 6 236 11 b 244 13 252 15 259 19 b 361 57 435 171 475 250 z m 197 594 b 212 617 225 641 240 664 b 245 672 262 668 271 657 b 286 639 285 622 267 605 b 263 600 258 594 248 598 b 244 600 236 595 230 594 b 220 592 210 591 200 590 b 199 591 198 593 197 594 z"},"s":{"x_min":0,"x_max":324,"ha":324,"o":"m 240 25 b 236 24 244 26 240 25 z m 350 169 b 346 173 347 170 342 172 b 339 166 338 162 336 159 b 315 124 294 89 260 61 b 249 52 240 42 223 39 b 220 38 217 37 214 36 b 216 38 218 40 220 42 b 231 53 263 73 261 111 b 261 117 259 122 257 128 b 254 140 253 152 242 163 b 236 169 230 175 224 182 b 217 190 210 198 202 206 b 188 220 173 233 156 244 b 137 258 118 270 103 287 b 90 301 87 307 95 319 b 98 323 103 326 105 331 b 109 339 111 348 114 357 b 115 360 118 364 120 364 b 131 364 120 384 114 390 b 102 400 88 405 75 403 b 63 401 52 397 43 389 b 39 385 33 382 29 378 b 24 373 18 368 15 362 b 9 348 9 333 15 317 b 22 297 30 284 45 268 b 45 268 60 253 61 253 b 72 242 86 232 96 220 b 104 211 115 203 122 194 b 131 182 139 169 145 156 b 154 136 154 117 154 98 b 154 89 150 80 146 72 b 138 55 129 40 109 32 b 107 32 105 30 104 28 b 97 20 88 13 74 14 b 70 15 66 16 63 17 b 51 18 41 24 31 31 b 26 35 19 25 21 21 b 24 16 27 11 34 10 b 36 10 38 8 40 7 b 51 3 61 -7 74 -3 b 74 -3 75 -3 76 -3 b 82 -8 87 -5 93 -4 b 103 -3 153 6 156 7 b 161 8 166 9 170 11 b 175 14 179 17 184 19 b 192 18 201 18 209 19 b 220 21 230 23 240 25 b 246 27 253 36 258 40 b 277 52 290 68 302 84 b 307 91 309 98 313 104 b 326 123 335 141 345 159 b 348 164 354 166 350 169 z"},">":{"x_min":0,"x_max":310,"ha":310,"o":"m 184 163 b 176 153 167 153 167 144 b 141 135 124 127 106 100 b 97 91 87 83 79 74 b 69 66 62 46 54 38 b 62 31 62 31 69 31 b 87 38 97 46 114 58 b 151 100 193 127 237 163 b 256 172 273 197 273 224 b 273 232 265 242 265 242 b 212 285 167 330 124 363 b 114 374 114 374 106 374 b 97 383 87 391 69 383 b 54 374 45 355 45 339 b 54 330 54 311 62 302 b 87 269 124 224 158 180 b 167 172 176 172 184 163 z"},"l":{"x_min":0,"x_max":216,"ha":216,"o":"m 118 38 b 117 38 117 39 116 39 b 116 40 116 41 116 43 b 116 65 117 87 117 109 b 117 115 115 121 116 127 b 117 142 118 157 120 172 b 122 190 118 209 122 227 b 125 239 124 251 125 263 b 126 273 128 282 128 291 b 128 300 132 383 133 392 b 134 408 136 424 138 441 b 139 454 140 468 140 482 b 141 494 143 505 138 517 b 134 528 128 539 118 545 b 110 549 104 556 94 559 b 80 564 67 567 53 566 b 43 565 37 559 36 550 b 33 533 30 516 28 499 b 26 485 26 471 25 457 b 24 440 22 424 21 408 b 20 393 15 303 14 288 b 13 274 10 262 10 248 b 8 226 7 203 6 180 b 5 152 5 123 4 95 b 4 77 6 58 16 41 b 27 25 37 9 57 3 b 64 1 71 -1 77 -3 b 97 -8 111 0 123 13 b 134 25 142 39 152 52 b 165 70 174 93 187 112 b 201 133 214 155 227 177 b 231 183 233 190 236 197 b 238 203 238 210 240 216 b 244 225 251 224 240 227 b 238 227 234 227 233 225 b 229 217 226 209 222 201 b 220 196 220 191 217 186 b 214 179 206 164 203 157 b 181 117 156 87 129 50 b 125 46 122 42 118 38 z"},"8":{"x_min":0,"x_max":347,"ha":347,"o":"m 102 330 b 88 313 78 297 67 281 b 56 268 47 256 39 243 b 29 227 16 206 7 189 b -1 168 -15 149 -12 124 b -7 117 -7 111 -12 104 b -12 86 -12 67 -1 49 b 12 32 20 17 34 0 b 53 -25 74 -40 105 -53 b 129 -58 156 -58 183 -62 b 191 -62 200 -58 205 -58 b 218 -58 226 -58 236 -53 b 253 -50 267 -37 286 -28 b 290 -25 294 -20 303 -15 b 313 -3 313 13 313 25 b 317 38 317 49 321 62 b 327 82 327 104 321 120 b 317 129 317 141 317 149 b 317 149 317 149 317 153 b 317 156 317 161 317 164 b 317 168 313 174 313 174 b 308 186 303 193 300 202 b 290 214 281 223 273 236 b 259 248 246 260 232 272 b 218 285 218 285 226 297 b 226 297 226 297 226 297 b 236 310 246 318 249 325 b 259 338 263 346 273 358 b 276 367 286 375 281 387 b 281 387 286 392 290 392 b 303 400 317 416 321 432 b 330 450 335 466 330 482 b 330 486 330 486 330 489 b 330 511 317 526 294 539 b 276 551 253 561 232 561 b 200 564 170 569 142 561 b 91 548 56 523 43 479 b 43 466 43 454 43 441 b 53 420 56 400 67 379 b 67 375 70 370 70 367 b 84 355 91 343 102 330 z m 191 260 b 210 248 223 236 236 218 b 240 214 246 211 249 202 b 253 193 259 181 263 174 b 276 156 286 136 286 117 b 286 82 281 49 267 17 b 259 -3 240 -20 218 -33 b 200 -40 183 -37 164 -37 b 150 -37 137 -37 123 -33 b 105 -28 91 -15 78 -3 b 70 0 61 8 61 17 b 56 25 56 32 56 42 b 56 49 61 54 56 57 b 56 74 67 86 78 95 b 84 104 88 111 91 120 b 102 132 110 145 119 156 b 132 174 142 189 156 206 b 170 218 173 239 187 248 b 191 251 191 256 191 260 z m 61 457 b 67 474 70 486 74 498 b 74 498 78 502 78 502 b 91 511 102 514 115 523 b 123 526 132 526 142 536 b 159 544 173 539 187 532 b 197 526 210 523 218 523 b 226 523 232 519 232 514 b 226 502 226 494 223 486 b 218 474 214 466 210 457 b 210 454 205 454 205 454 b 191 450 187 441 183 432 b 170 420 159 407 150 392 b 146 387 142 379 132 370 b 132 370 129 370 129 370 b 110 379 97 387 88 404 b 88 407 84 416 74 420 b 70 425 70 437 70 441 b 70 454 70 457 61 457 z"},"\\":{"x_min":0,"x_max":569,"ha":569,"o":"m 510 -225 b 510 -213 510 -213 510 -200 b 497 -194 485 -169 485 -144 b 485 -144 485 -131 472 -125 b 466 -100 453 -75 453 -56 b 441 7 428 64 397 107 b 397 120 384 133 384 145 b 384 177 372 227 359 258 b 359 296 334 327 315 352 b 303 365 303 377 303 396 b 290 409 290 434 278 459 b 265 490 253 528 221 547 b 196 559 177 585 152 597 b 127 603 108 616 83 616 b 71 616 58 616 58 597 b 71 597 83 585 83 572 b 96 559 108 547 108 534 b 127 490 152 446 165 409 b 177 377 196 340 209 308 b 246 227 265 158 290 76 b 315 -6 334 -75 372 -144 b 384 -156 384 -156 384 -156 b 384 -169 397 -181 403 -194 b 416 -200 441 -213 453 -225 b 472 -225 497 -238 510 -225 z"},"e":{"x_min":0,"x_max":272,"ha":272,"o":"m -18 116 b -18 115 -17 115 -17 115 b -18 96 -11 78 -3 61 b 1 54 5 48 10 42 b 20 29 32 17 47 10 b 64 3 81 -1 99 1 b 105 2 111 2 117 3 b 120 3 124 4 128 5 b 134 7 140 8 146 11 b 151 13 155 17 160 20 b 166 24 173 27 179 31 b 190 38 197 48 204 60 b 207 66 210 72 215 77 b 226 86 233 98 240 110 b 242 114 246 117 247 121 b 249 131 256 136 262 143 b 264 144 266 147 267 149 b 269 154 271 159 273 164 b 275 168 276 171 277 175 b 277 180 278 184 282 188 b 288 196 297 199 300 210 b 302 216 301 225 296 227 b 294 228 291 227 290 226 b 286 220 282 213 278 206 b 265 184 252 162 239 141 b 231 129 221 117 213 105 b 203 88 188 75 172 63 b 162 54 150 48 139 40 b 130 33 120 27 109 26 b 99 24 88 22 77 23 b 61 24 52 33 43 44 b 43 45 42 47 42 48 b 47 57 48 68 50 78 b 53 91 56 105 60 117 b 61 123 64 129 69 131 b 78 137 88 142 97 149 b 107 158 119 166 130 175 b 143 185 154 197 163 211 b 165 214 169 216 173 218 b 174 219 176 220 176 221 b 180 228 183 234 187 241 b 189 245 192 249 194 253 b 195 255 197 257 197 258 b 199 262 200 267 200 271 b 202 278 203 285 204 292 b 204 293 203 295 203 296 b 200 302 197 307 194 313 b 192 317 190 321 189 326 b 186 334 181 339 174 344 b 168 348 161 348 155 349 b 146 352 139 349 133 347 b 124 344 115 342 108 334 b 106 332 104 331 102 330 b 95 326 87 323 81 317 b 72 310 64 301 56 292 b 52 289 49 284 45 280 b 42 277 40 273 37 269 b 33 262 28 255 24 248 b 17 236 11 224 6 211 b 1 199 -4 187 -6 173 b -7 170 -9 168 -10 165 b -11 159 -12 154 -12 149 b -14 138 -16 127 -18 116 z m 166 290 b 169 284 173 282 180 284 b 179 278 179 273 177 268 b 171 248 164 229 150 214 b 138 201 125 189 112 178 b 103 170 92 164 82 157 b 80 156 79 155 78 155 b 82 167 86 178 91 190 b 93 197 95 204 98 211 b 101 217 105 222 108 228 b 110 231 111 234 113 238 b 119 247 125 257 132 267 b 133 269 136 270 139 272 b 145 276 151 280 158 284 b 160 286 163 287 166 290 z"},"b":{"x_min":0,"x_max":377,"ha":377,"o":"m 338 210 b 339 226 336 241 331 255 b 328 262 324 270 319 276 b 310 284 300 292 289 299 b 283 303 274 305 267 306 b 258 308 249 307 241 307 b 232 307 223 307 214 306 b 207 305 200 302 193 302 b 165 299 147 283 129 266 b 126 264 123 262 120 260 b 118 264 116 268 116 271 b 115 291 113 310 114 329 b 116 352 118 375 114 399 b 114 399 114 400 114 400 b 115 411 117 421 117 432 b 118 449 118 467 119 484 b 119 497 117 510 120 523 b 122 535 105 557 91 563 b 83 567 74 571 66 574 b 51 578 20 575 21 556 b 22 553 21 550 21 547 b 21 533 20 518 20 503 b 20 490 21 476 20 462 b 20 448 18 434 17 419 b 16 404 16 389 15 374 b 14 351 13 328 12 305 b 11 282 10 258 9 235 b 8 219 8 203 8 187 b 9 175 12 162 11 150 b 10 129 6 107 4 86 b 3 79 4 71 4 63 b 4 58 5 52 3 47 b 1 41 4 39 7 36 b 9 34 11 33 12 31 b 19 22 47 16 57 13 b 69 8 77 15 76 27 b 76 36 71 47 81 54 b 81 54 81 54 81 54 b 83 70 86 85 80 101 b 79 104 80 109 81 110 b 88 117 96 123 103 130 b 106 132 109 135 110 138 b 113 148 116 159 118 169 b 121 184 116 200 125 213 b 127 215 128 218 129 221 b 135 233 140 245 153 251 b 162 256 169 262 176 268 b 182 272 187 275 196 275 b 203 274 211 275 219 275 b 223 275 228 274 232 273 b 233 272 236 270 236 269 b 236 258 236 247 236 237 b 236 232 234 227 234 222 b 232 210 230 198 228 186 b 227 177 224 168 224 158 b 225 152 223 148 220 146 b 207 136 194 127 181 119 b 155 102 134 82 120 54 b 114 43 117 26 128 17 b 136 10 144 2 153 -5 b 159 -10 166 -14 174 -10 b 180 -8 187 -6 192 -2 b 199 3 208 6 214 12 b 219 18 225 21 230 27 b 238 36 250 39 254 51 b 255 52 256 53 257 53 b 263 56 269 58 274 60 b 292 67 303 80 311 96 b 323 119 325 146 333 170 b 334 171 334 173 333 175 b 332 182 334 194 339 197 b 345 201 351 204 358 208 b 362 210 368 212 372 214 b 379 219 413 243 420 247 b 425 251 430 255 427 262 b 425 267 421 262 417 265 b 416 265 390 244 388 242 b 384 238 374 231 369 228 b 359 222 348 216 338 210 z m 126 37 b 132 41 137 45 141 50 b 147 55 152 60 156 65 b 162 71 168 78 173 84 b 176 86 178 89 181 91 b 191 100 202 108 213 117 b 214 117 215 117 219 116 b 214 101 210 85 204 70 b 196 53 185 38 167 28 b 166 27 164 25 163 24 b 152 18 142 20 131 32 b 129 34 127 36 126 37 z"},"%":{"x_min":0,"x_max":657,"ha":657,"o":"m 57 -51 b 74 -63 90 -63 101 -51 b 112 -46 118 -40 129 -35 b 140 -29 156 -13 162 -2 b 167 9 173 15 179 20 b 179 26 184 26 184 31 b 190 53 201 65 217 81 b 234 92 239 109 250 125 b 256 131 261 136 261 142 b 278 153 289 164 300 175 b 311 186 322 197 328 208 b 333 208 333 214 333 219 b 333 241 344 252 355 269 b 366 280 377 291 388 308 b 405 335 422 363 444 385 b 460 407 471 429 482 457 b 493 473 499 495 510 512 b 521 529 527 551 532 573 b 538 584 527 611 504 617 b 488 595 471 573 455 556 b 438 529 422 501 405 473 b 366 418 328 363 295 302 b 289 291 278 280 267 269 b 250 241 234 208 212 181 b 190 147 167 120 145 87 b 129 59 112 37 96 9 b 79 -13 68 -35 57 -51 z m 504 -2 b 504 -2 504 -2 504 -2 b 527 -2 538 9 554 20 b 582 31 587 59 598 81 b 598 87 593 92 593 98 b 587 114 582 136 576 158 b 576 164 571 170 565 175 b 565 181 560 186 554 192 b 543 208 527 230 510 241 b 493 252 477 247 460 230 b 455 225 460 214 471 208 b 477 208 477 208 482 203 b 499 186 504 170 510 147 b 510 120 510 98 493 76 b 482 65 477 59 466 59 b 449 59 433 87 433 103 b 433 120 438 136 438 153 b 438 170 444 186 444 203 b 438 214 433 225 427 230 b 411 230 400 230 383 230 b 372 225 355 214 350 203 b 317 170 322 131 344 92 b 361 59 388 37 416 20 b 427 15 438 4 449 4 b 466 -2 482 -2 504 -2 z m 250 573 b 245 578 239 584 228 584 b 195 589 173 578 145 556 b 118 534 101 490 123 451 b 134 435 145 413 162 402 b 179 379 201 368 223 363 b 250 357 272 368 284 396 b 284 396 284 396 289 396 b 300 407 311 413 317 424 b 317 435 322 435 328 440 b 333 451 339 451 344 462 b 350 473 355 490 361 501 b 366 529 350 556 317 556 b 306 551 295 556 284 562 b 272 562 261 567 250 573 z m 250 562 b 250 562 250 556 250 556 b 250 540 256 518 261 501 b 267 484 256 451 239 440 b 234 435 228 429 223 424 b 201 440 195 462 195 484 b 195 490 201 495 201 495 b 212 512 223 529 234 540 b 239 551 245 556 250 562 z"},"m":{"x_min":0,"x_max":522,"ha":522,"o":"m 36 6 b 44 6 49 4 55 5 b 69 7 84 10 97 13 b 104 14 108 17 111 24 b 114 28 117 32 119 35 b 123 40 128 44 131 48 b 139 60 138 73 139 86 b 140 94 142 102 142 109 b 142 134 141 159 140 184 b 140 198 139 213 139 226 b 140 234 141 241 146 247 b 159 266 175 284 190 302 b 191 305 193 306 198 309 b 199 298 199 289 200 280 b 201 271 203 263 204 254 b 206 246 210 237 207 231 b 203 224 207 218 208 210 b 209 186 210 160 210 136 b 210 124 220 116 230 113 b 239 111 244 115 249 123 b 258 137 262 153 258 169 b 256 177 252 185 250 193 b 247 205 244 216 242 228 b 242 230 243 234 244 236 b 250 244 256 249 261 257 b 277 276 292 295 318 304 b 321 305 324 308 329 310 b 328 297 326 285 325 274 b 324 260 322 247 321 235 b 320 217 320 199 319 182 b 319 169 319 157 319 146 b 318 138 317 131 317 122 b 315 105 319 88 325 72 b 332 57 342 46 354 37 b 366 28 383 26 397 23 b 412 21 420 36 431 45 b 442 54 452 65 461 77 b 474 94 487 112 500 129 b 521 158 541 186 555 219 b 559 231 565 236 549 236 b 541 220 533 213 523 197 b 511 177 498 157 485 139 b 470 117 453 99 436 80 b 429 70 425 68 415 60 b 418 70 412 66 413 75 b 413 82 412 88 412 95 b 416 127 415 158 412 190 b 412 195 412 200 412 205 b 411 214 411 223 409 233 b 407 246 404 259 402 273 b 401 287 396 299 388 310 b 384 316 379 320 376 327 b 370 339 358 341 345 341 b 340 341 333 339 329 335 b 318 326 308 316 297 307 b 282 295 267 283 252 271 b 249 269 246 267 241 264 b 241 270 242 275 240 279 b 236 294 231 307 224 320 b 216 338 199 338 189 329 b 176 317 165 304 152 290 b 149 287 146 283 142 278 b 141 291 139 304 139 315 b 138 330 133 342 126 356 b 116 370 101 377 87 382 b 74 388 59 389 45 388 b 40 388 37 385 33 382 b 31 381 30 379 28 379 b 18 379 19 370 19 365 b 18 350 19 336 19 320 b 19 291 20 263 21 234 b 21 225 20 216 21 208 b 24 190 26 174 28 156 b 28 144 28 131 28 117 b 28 107 27 96 28 85 b 29 76 31 66 33 57 b 34 41 35 24 36 6 z"},"#":{"x_min":0,"x_max":472,"ha":472,"o":"m 267 23 b 280 27 296 27 307 32 b 317 32 320 35 320 44 b 324 52 324 60 328 69 b 345 89 349 117 353 142 b 353 150 357 154 364 154 b 377 159 390 163 403 166 b 419 175 422 192 414 203 b 406 215 393 225 386 236 b 381 236 377 232 377 228 b 374 228 364 225 360 228 b 360 228 357 232 357 236 b 357 249 357 256 357 269 b 357 272 357 272 360 272 b 364 272 364 278 370 278 b 386 278 403 278 419 282 b 436 282 443 305 436 318 b 426 331 419 339 410 347 b 406 355 406 355 397 347 b 397 347 393 347 393 347 b 377 343 364 339 349 339 b 349 343 345 343 345 347 b 345 368 341 388 332 412 b 317 445 307 458 274 458 b 267 458 267 453 267 445 b 267 434 271 424 271 417 b 271 391 271 368 271 343 b 271 334 267 334 263 331 b 241 331 222 326 201 326 b 194 322 194 326 194 331 b 188 351 184 372 181 388 b 168 417 144 434 111 424 b 108 424 104 420 108 412 b 108 408 108 405 108 395 b 108 372 108 343 104 318 b 104 315 104 311 104 311 b 82 305 62 301 42 311 b 37 311 32 315 29 311 b 25 311 29 301 29 298 b 29 294 29 289 32 286 b 42 265 58 253 75 244 b 82 241 91 236 98 232 b 104 232 104 228 104 228 b 104 220 108 215 108 208 b 108 199 108 196 94 192 b 78 186 58 182 37 186 b 29 192 25 186 29 175 b 29 163 37 150 49 142 b 62 134 75 122 94 117 b 108 117 108 113 108 102 b 108 85 104 69 104 52 b 104 47 104 44 111 44 b 123 44 136 40 148 40 b 151 44 155 44 155 47 b 165 56 168 63 172 73 b 181 89 184 106 188 122 b 188 130 194 130 201 130 b 210 130 217 134 230 134 b 241 134 255 138 267 138 b 267 102 267 63 267 23 z m 267 261 b 267 249 263 241 263 232 b 263 228 263 225 263 225 b 263 211 258 211 251 208 b 234 208 213 208 197 203 b 197 203 197 203 194 203 b 194 215 194 228 194 241 b 197 249 197 249 205 249 b 222 253 241 256 267 261 z"},",":{"x_min":0,"x_max":226,"ha":226,"o":"m 67 -56 b 74 -63 81 -66 88 -70 b 88 -70 92 -70 92 -70 b 99 -70 106 -66 113 -63 b 123 -59 134 -56 144 -49 b 144 -49 144 -45 148 -45 b 158 -35 165 -21 172 -7 b 172 -3 176 0 176 0 b 176 14 176 25 172 35 b 169 53 169 71 148 78 b 148 78 148 78 144 81 b 134 95 116 95 102 88 b 92 85 85 78 74 71 b 63 67 63 60 71 53 b 78 46 88 35 95 28 b 99 21 102 11 99 4 b 99 0 95 -3 95 -3 b 88 -14 85 -24 78 -35 b 74 -42 71 -49 67 -56 z"},"n":{"x_min":0,"x_max":384,"ha":384,"o":"m 130 274 b 130 281 131 290 130 298 b 130 304 128 309 125 314 b 119 324 112 334 102 341 b 90 350 80 361 66 364 b 53 367 41 372 28 365 b 19 359 9 357 12 343 b 13 334 12 325 12 316 b 11 300 9 284 8 268 b 8 263 10 257 9 252 b 9 237 8 222 7 207 b 7 199 6 190 6 182 b 6 175 8 168 8 162 b 7 143 5 125 7 107 b 9 94 11 81 11 69 b 12 59 11 49 10 39 b 10 32 11 27 19 25 b 32 21 45 18 57 12 b 67 7 79 4 90 2 b 102 -1 113 6 115 15 b 117 25 118 36 120 46 b 120 54 119 63 122 70 b 125 77 123 84 123 91 b 122 99 122 108 121 117 b 121 125 119 133 119 142 b 118 152 117 162 118 171 b 120 186 122 200 126 214 b 129 228 134 242 140 254 b 145 265 153 275 161 284 b 165 289 169 294 175 296 b 183 299 191 300 200 301 b 204 303 206 301 205 296 b 204 290 204 283 202 278 b 198 268 192 259 188 249 b 181 229 175 210 169 190 b 166 180 162 169 162 158 b 161 147 157 137 157 126 b 160 99 162 73 185 53 b 197 42 209 32 224 26 b 235 22 245 17 257 23 b 263 26 270 27 276 29 b 281 31 286 32 290 34 b 298 38 305 41 312 46 b 327 55 340 66 347 83 b 351 91 358 98 362 106 b 368 118 373 128 382 143 b 393 162 398 178 402 193 b 403 199 406 207 404 213 b 403 218 389 208 385 197 b 383 191 384 187 382 181 b 376 163 357 130 349 112 b 341 90 322 74 302 59 b 297 55 276 49 270 45 b 270 56 270 69 270 78 b 270 81 270 84 270 87 b 274 111 278 134 282 158 b 283 160 284 162 284 163 b 288 172 291 181 294 191 b 296 197 296 204 298 210 b 302 222 303 232 299 244 b 293 261 285 276 273 289 b 260 306 243 317 222 321 b 198 325 178 319 160 302 b 150 292 140 283 130 274 z"},"h":{"x_min":0,"x_max":375,"ha":375,"o":"m 127 427 b 136 426 144 429 149 436 b 158 451 164 468 165 486 b 166 494 164 504 161 513 b 157 523 151 533 146 543 b 141 552 137 560 132 568 b 129 572 125 577 120 580 b 105 589 86 587 76 575 b 72 570 69 564 66 558 b 60 548 54 539 49 529 b 44 520 40 511 36 502 b 33 494 30 486 28 478 b 26 466 24 453 22 440 b 22 438 22 435 22 432 b 20 417 17 401 15 386 b 14 375 14 364 13 354 b 11 332 8 310 7 287 b 5 268 4 249 3 229 b 2 206 1 182 1 159 b 0 138 2 117 3 96 b 5 70 7 44 9 19 b 10 11 9 3 9 -5 b 13 -5 17 -5 19 -3 b 29 6 43 6 56 7 b 70 8 80 17 81 31 b 81 32 81 33 82 34 b 85 43 88 52 91 60 b 92 64 94 71 97 72 b 109 74 112 82 113 93 b 113 100 113 107 113 115 b 114 135 115 155 116 175 b 117 188 116 200 116 213 b 116 227 117 241 116 255 b 115 264 118 272 124 278 b 137 291 150 305 167 315 b 172 318 177 321 184 325 b 185 320 185 317 185 313 b 185 294 185 274 185 255 b 185 246 187 238 187 230 b 186 210 184 191 184 171 b 184 152 184 133 186 114 b 187 101 189 88 193 76 b 198 62 201 47 218 38 b 234 30 249 20 267 24 b 272 24 277 24 282 25 b 288 27 295 28 300 32 b 307 37 312 43 318 49 b 331 61 344 72 356 84 b 369 98 422 223 421 223 b 416 226 416 222 410 223 b 410 224 409 222 409 221 b 400 203 393 184 383 167 b 372 146 360 126 347 108 b 331 84 312 63 287 48 b 278 43 268 39 258 37 b 255 36 247 40 244 43 b 241 48 247 50 250 52 b 253 54 256 56 257 58 b 263 67 270 77 275 87 b 279 95 280 105 283 114 b 284 119 288 124 288 130 b 290 142 290 154 291 166 b 291 174 290 182 290 189 b 290 204 290 218 290 233 b 290 237 291 242 290 246 b 289 254 287 261 284 268 b 282 275 278 281 274 287 b 262 304 250 321 230 331 b 215 339 201 340 186 341 b 181 341 175 340 171 337 b 160 329 149 320 138 311 b 132 306 125 302 117 296 b 120 340 124 383 127 427 z m 126 430 b 125 458 132 482 139 509 b 147 489 138 435 126 430 z"},"z":{"x_min":0,"x_max":288,"ha":288,"o":"m 168 83 b 169 78 174 72 175 66 b 181 44 176 21 173 -1 b 172 -7 170 -16 165 -21 b 140 -44 113 -65 88 -89 b 63 -112 40 -136 17 -161 b -1 -179 -15 -201 -25 -224 b -30 -235 -32 -248 -36 -260 b -37 -264 -37 -269 -39 -273 b -51 -295 -45 -315 -32 -333 b -23 -346 -9 -357 4 -368 b 16 -377 31 -377 44 -371 b 66 -362 85 -350 101 -331 b 110 -319 122 -311 129 -299 b 146 -273 169 -250 180 -220 b 185 -207 192 -194 195 -180 b 199 -162 206 -145 202 -126 b 201 -119 199 -112 200 -106 b 204 -81 209 -56 214 -31 b 215 -26 217 1 220 4 b 231 13 243 20 255 28 b 264 34 273 44 280 53 b 290 64 296 66 304 76 b 317 88 322 90 330 107 b 336 117 339 119 333 128 b 302 85 260 56 218 26 b 210 52 204 79 177 93 b 178 95 179 97 179 98 b 194 115 209 132 223 149 b 235 167 246 186 254 206 b 261 226 262 244 260 264 b 259 266 258 270 257 271 b 251 282 243 291 237 301 b 225 321 206 331 185 335 b 157 340 132 333 109 320 b 89 307 70 293 53 276 b 39 261 8 210 -4 193 b -8 186 -15 180 -7 176 b 0 171 2 179 6 185 b 11 193 35 233 40 242 b 48 260 68 275 84 287 b 90 292 96 296 103 298 b 117 304 130 308 144 311 b 155 313 166 313 177 313 b 179 313 180 309 181 307 b 183 289 177 273 168 258 b 161 243 151 227 140 213 b 125 190 109 168 93 145 b 81 129 68 115 59 96 b 56 89 52 82 63 77 b 59 74 57 72 54 71 b 50 65 52 58 58 57 b 62 56 65 57 68 59 b 74 62 79 61 85 57 b 94 51 105 49 116 55 b 122 59 127 64 133 67 b 143 73 154 77 168 83 z m 158 -66 b 146 -90 136 -115 123 -138 b 106 -168 87 -196 68 -223 b 54 -242 37 -260 21 -278 b 17 -283 11 -286 5 -289 b -1 -292 -9 -291 -14 -285 b -19 -279 -25 -273 -32 -265 b -15 -263 -16 -250 -13 -241 b 1 -212 23 -187 42 -162 b 57 -143 79 -133 94 -114 b 103 -103 114 -93 126 -84 b 135 -76 145 -71 155 -64 b 156 -65 157 -65 158 -66 z"},"B":{"x_min":0,"x_max":595,"ha":595,"o":"m 5 524 b 18 512 28 510 38 513 b 41 514 44 513 46 512 b 55 508 59 500 58 489 b 55 439 51 388 49 337 b 48 309 49 281 49 253 b 48 228 47 203 46 178 b 46 167 45 156 45 146 b 46 130 48 114 47 98 b 47 70 44 42 43 14 b 42 0 44 -2 58 0 b 61 1 65 4 68 5 b 83 11 96 21 111 22 b 129 24 145 31 162 37 b 172 42 180 49 182 60 b 186 76 188 92 191 108 b 192 115 195 121 195 127 b 196 151 196 175 196 199 b 196 206 200 209 206 211 b 218 215 230 218 241 224 b 258 233 274 243 291 252 b 297 255 305 255 312 255 b 325 254 338 251 351 250 b 361 249 368 244 373 236 b 388 213 391 187 388 161 b 386 150 383 141 373 134 b 358 125 344 114 331 103 b 288 65 251 22 222 -28 b 214 -42 207 -58 202 -74 b 196 -94 195 -115 197 -135 b 198 -150 197 -167 207 -181 b 211 -186 216 -190 220 -194 b 242 -217 264 -221 291 -207 b 292 -206 294 -207 295 -206 b 307 -201 320 -198 331 -192 b 342 -186 351 -178 360 -169 b 376 -154 391 -137 406 -121 b 421 -104 435 -86 450 -68 b 462 -53 474 -37 485 -21 b 495 -5 501 12 511 27 b 521 43 524 60 528 77 b 532 90 534 102 538 115 b 547 143 551 171 537 201 b 563 212 588 223 613 234 b 624 238 634 243 641 252 b 640 253 640 254 640 255 b 603 246 566 237 529 228 b 527 230 526 234 523 237 b 512 250 501 264 489 276 b 481 283 473 292 463 294 b 439 300 414 302 390 305 b 382 306 374 306 365 306 b 366 310 366 311 366 311 b 378 330 391 349 400 369 b 408 385 411 404 415 421 b 418 436 419 451 421 467 b 426 500 428 532 403 559 b 384 580 368 586 344 573 b 320 559 297 543 275 526 b 227 490 202 438 177 386 b 172 375 168 363 164 352 b 159 373 156 393 153 413 b 148 435 143 458 139 480 b 137 494 130 504 118 510 b 98 522 76 529 53 530 b 38 531 23 527 5 524 z m 166 316 b 169 361 187 398 215 432 b 225 444 232 460 242 473 b 258 496 279 515 303 530 b 322 542 342 551 362 561 b 368 565 370 561 373 556 b 382 538 383 520 380 500 b 374 467 365 437 347 409 b 333 388 316 370 297 353 b 288 345 280 336 271 329 b 261 320 250 313 239 306 b 222 297 204 288 187 280 b 184 278 176 280 175 282 b 171 293 169 305 166 316 z m 379 95 b 377 86 375 78 373 69 b 369 53 365 38 361 22 b 355 -6 341 -31 327 -55 b 316 -74 305 -94 292 -111 b 284 -122 276 -134 262 -139 b 250 -144 240 -151 229 -157 b 221 -162 215 -157 208 -154 b 207 -153 207 -148 208 -148 b 221 -141 223 -126 231 -115 b 243 -99 248 -79 254 -60 b 263 -34 278 -10 296 11 b 315 34 337 57 357 79 b 363 85 370 91 377 96 b 377 96 378 95 379 95 z"},"K":{"x_min":0,"x_max":542,"ha":542,"o":"m 565 200 b 565 214 573 222 559 227 b 554 211 547 195 543 179 b 526 114 541 145 515 84 b 496 39 492 46 466 5 b 450 -19 429 -35 397 -43 b 390 -21 384 1 376 23 b 361 65 343 153 323 194 b 301 240 285 290 243 322 b 257 343 272 362 283 384 b 303 422 321 462 339 501 b 344 512 350 523 353 535 b 360 564 372 591 390 615 b 401 630 416 630 428 617 b 432 614 434 609 438 607 b 447 600 458 601 465 609 b 470 614 475 625 472 630 b 459 657 404 674 383 648 b 371 634 359 619 352 602 b 328 549 307 495 285 441 b 271 407 256 373 230 345 b 225 339 221 338 213 343 b 201 351 187 357 173 359 b 164 361 153 359 147 350 b 148 354 148 357 148 361 b 150 400 152 439 152 478 b 151 517 149 555 145 593 b 143 609 136 626 127 640 b 111 666 59 671 28 653 b 11 643 -6 632 -23 621 b -32 615 -39 607 -30 596 b -25 589 -18 582 -17 574 b -13 545 -12 516 -9 487 b -5 451 -2 415 3 379 b 6 353 13 327 13 300 b 14 260 10 220 8 180 b 7 152 6 125 16 99 b 19 91 20 81 19 72 b 17 40 15 7 11 -25 b 7 -49 4 -74 -14 -99 b -5 -102 4 -109 10 -107 b 27 -101 47 -99 55 -77 b 58 -68 63 -60 67 -52 b 72 -43 74 -32 86 -28 b 88 -28 89 -19 89 -15 b 89 -7 87 1 87 9 b 88 21 91 34 91 46 b 91 59 97 66 109 70 b 134 79 147 98 139 124 b 133 145 137 164 141 184 b 147 211 153 239 145 267 b 143 276 140 285 140 294 b 140 295 141 296 141 296 b 143 292 147 288 150 286 b 158 281 164 289 169 296 b 172 300 177 303 183 308 b 186 293 188 280 191 268 b 197 237 203 206 211 176 b 217 155 225 135 233 115 b 240 96 245 51 262 26 b 280 -1 311 -54 355 -70 b 377 -77 385 -82 405 -69 b 413 -64 419 -57 427 -54 b 457 -42 479 -21 496 6 b 504 18 511 32 518 45 b 534 76 526 61 539 93 b 553 131 550 122 561 161 b 569 191 567 169 565 200 z m 167 317 b 161 316 154 317 148 318 b 150 325 151 334 155 339 b 160 345 168 345 173 337 b 176 334 179 331 183 327 b 177 323 173 318 167 317 z"},"R":{"x_min":0,"x_max":439,"ha":439,"o":"m 133 191 b 137 187 142 180 146 180 b 159 182 163 172 169 165 b 177 155 184 144 193 135 b 231 94 268 54 307 15 b 328 -6 351 -23 373 -43 b 407 -74 442 -103 483 -124 b 511 -139 539 -153 568 -165 b 597 -176 628 -181 660 -181 b 666 -181 672 -180 678 -181 b 707 -186 733 -182 758 -167 b 775 -156 782 -133 770 -119 b 778 -104 777 -104 765 -92 b 762 -89 760 -83 759 -77 b 758 -72 757 -69 751 -72 b 748 -74 744 -76 742 -79 b 731 -92 723 -108 710 -118 b 686 -136 658 -138 629 -132 b 610 -127 592 -118 572 -112 b 532 -102 499 -79 465 -58 b 451 -50 439 -39 425 -30 b 403 -15 378 -2 357 16 b 318 49 277 81 244 121 b 225 144 205 164 185 185 b 195 198 208 203 224 203 b 225 203 227 203 227 204 b 232 214 242 211 250 212 b 268 216 285 219 302 222 b 311 224 321 226 329 230 b 344 239 360 249 375 259 b 394 273 411 288 423 309 b 444 345 461 382 467 424 b 469 442 472 460 471 478 b 471 494 468 511 465 527 b 460 551 447 570 424 580 b 408 588 391 593 373 597 b 347 603 323 597 303 579 b 288 567 273 556 259 543 b 220 508 180 474 152 428 b 151 427 148 426 145 423 b 145 444 146 462 145 480 b 142 506 138 532 133 558 b 129 575 122 592 105 601 b 97 605 88 609 79 611 b 67 612 54 613 43 610 b 23 604 7 589 -9 576 b -16 571 -15 562 -11 555 b -7 551 -4 545 -3 540 b -1 523 1 506 2 489 b 4 465 4 442 5 419 b 5 407 9 396 9 385 b 10 371 7 356 8 342 b 9 311 11 281 13 250 b 15 222 18 194 19 166 b 20 137 19 108 19 79 b 20 40 21 0 23 -40 b 23 -56 26 -73 28 -89 b 41 -93 51 -90 60 -82 b 69 -74 66 -65 63 -56 b 62 -51 59 -47 58 -42 b 58 -31 54 -17 59 -9 b 67 5 71 18 72 33 b 74 49 79 63 93 71 b 97 74 100 80 102 85 b 106 92 110 100 113 108 b 116 118 118 127 120 136 b 123 155 121 175 133 191 z m 367 546 b 361 520 355 493 348 467 b 346 457 340 447 338 436 b 330 403 312 375 289 350 b 261 319 232 287 203 256 b 192 243 179 231 167 219 b 163 214 159 211 155 219 b 154 221 151 223 149 224 b 140 230 136 238 138 248 b 141 270 145 292 147 314 b 149 330 148 346 148 361 b 148 365 149 368 150 371 b 172 422 206 465 244 503 b 272 531 303 553 339 569 b 358 577 364 572 364 551 b 364 550 365 548 365 547 b 366 546 366 546 367 546 z"},"T":{"x_min":0,"x_max":354,"ha":354,"o":"m 238 598 b 245 599 249 599 254 599 b 274 598 294 595 314 595 b 337 594 361 596 383 599 b 390 600 397 608 400 614 b 402 618 397 628 392 631 b 385 636 377 640 369 640 b 347 642 325 641 303 641 b 292 641 280 639 269 639 b 246 638 222 640 199 639 b 148 636 98 632 47 627 b 16 624 -15 619 -45 614 b -49 613 -53 608 -56 604 b -52 601 -47 596 -43 596 b -34 596 -25 600 -16 601 b 13 603 42 605 71 606 b 76 606 82 607 87 605 b 97 603 113 606 106 586 b 106 585 107 584 107 583 b 106 562 105 542 104 521 b 103 495 101 469 103 443 b 105 418 112 393 115 368 b 117 352 115 336 117 320 b 122 283 124 247 121 210 b 119 192 120 174 120 157 b 120 126 121 96 120 66 b 120 55 118 44 118 33 b 118 19 120 4 118 -11 b 117 -30 114 -50 111 -73 b 126 -67 138 -63 150 -59 b 156 -57 162 -52 167 -52 b 195 -52 219 -43 241 -29 b 255 -20 264 -9 266 8 b 268 22 269 38 270 53 b 271 69 271 85 271 101 b 272 130 273 158 272 186 b 272 202 268 217 267 232 b 266 258 265 283 264 308 b 264 312 263 317 262 321 b 259 341 259 361 254 380 b 244 413 238 446 254 479 b 257 484 256 492 256 499 b 256 505 254 512 255 518 b 257 546 260 573 238 598 z"},"P":{"x_min":0,"x_max":482,"ha":482,"o":"m 37 0 b 38 -1 40 -1 42 -1 b 56 2 70 2 84 -3 b 87 -4 90 -5 93 -5 b 120 -5 130 0 127 27 b 124 46 126 65 138 82 b 140 84 140 89 140 92 b 141 106 140 121 143 134 b 147 156 156 177 153 202 b 149 226 151 252 146 276 b 141 303 142 329 148 355 b 154 383 148 410 147 438 b 146 465 143 491 149 518 b 150 522 151 526 149 530 b 144 541 149 551 153 561 b 156 567 158 573 161 578 b 183 628 208 674 255 707 b 272 718 289 722 307 727 b 309 727 313 725 315 723 b 318 717 322 711 324 704 b 331 683 338 661 344 639 b 352 610 356 581 353 551 b 351 524 349 496 345 469 b 342 452 335 436 332 419 b 330 412 327 410 321 408 b 299 399 278 388 256 378 b 247 374 237 370 228 365 b 218 360 207 355 199 348 b 188 340 180 330 175 315 b 171 305 170 298 178 291 b 182 288 186 284 190 283 b 199 279 209 277 218 273 b 230 268 241 268 252 274 b 261 279 270 284 279 287 b 303 296 327 303 350 313 b 358 316 363 327 370 332 b 387 344 403 358 423 366 b 426 367 429 369 431 371 b 442 380 448 393 452 407 b 456 421 462 435 468 448 b 471 454 476 458 479 463 b 479 464 478 465 477 466 b 474 465 471 465 470 464 b 472 491 475 516 476 542 b 476 571 469 600 460 627 b 454 646 446 664 438 683 b 427 713 405 732 376 742 b 347 752 317 758 286 750 b 269 745 250 740 237 729 b 207 704 183 672 163 638 b 156 626 148 614 140 601 b 139 604 139 605 138 606 b 136 628 134 650 130 673 b 125 702 112 726 83 739 b 59 750 36 749 14 736 b 4 731 -2 716 0 704 b 2 686 6 668 6 650 b 5 629 4 608 10 588 b 13 579 15 569 16 559 b 18 543 18 526 19 509 b 20 486 22 464 23 441 b 24 427 23 412 25 398 b 26 378 30 359 31 339 b 35 289 38 239 40 189 b 41 164 46 138 38 113 b 35 104 32 95 32 86 b 33 57 35 29 37 0 z m 194 309 b 208 321 221 332 235 344 b 236 345 237 346 238 346 b 258 353 277 360 298 367 b 294 363 291 358 287 355 b 268 339 248 323 227 309 b 217 302 206 305 195 305 b 194 307 194 308 194 309 z"},"|":{"x_min":0,"x_max":242,"ha":242,"o":"m 60 -206 b 78 -218 90 -218 103 -218 b 133 -218 151 -206 151 -176 b 164 -139 170 -96 170 -54 b 170 -35 170 -17 182 7 b 182 13 182 13 182 26 b 182 68 170 117 170 160 b 170 178 170 209 182 239 b 182 282 182 318 182 361 b 182 392 182 422 182 453 b 182 501 170 544 151 593 b 151 617 133 636 109 648 b 78 654 60 648 60 617 b 60 556 60 483 60 422 b 60 361 60 300 60 251 b 60 221 60 190 60 166 b 60 117 72 68 72 13 b 72 -48 60 -109 60 -170 b 60 -176 60 -176 60 -176 b 60 -188 60 -200 60 -206 z"},"t":{"x_min":0,"x_max":240,"ha":240,"o":"m -79 426 b -79 425 -79 424 -79 423 b -70 420 -61 416 -51 416 b -32 415 -13 415 6 415 b 18 415 18 415 18 404 b 17 391 15 323 14 310 b 12 297 10 254 9 241 b 8 228 8 214 8 200 b 8 194 9 187 9 181 b 9 176 6 172 6 167 b 5 147 5 127 5 108 b 4 96 5 84 5 72 b 6 49 16 30 34 19 b 54 7 75 -3 95 -11 b 106 -16 118 -16 128 -6 b 136 1 144 7 151 14 b 158 21 165 29 172 37 b 181 48 188 60 198 71 b 212 86 225 102 234 121 b 237 127 239 132 242 137 b 251 152 260 166 268 181 b 275 193 279 207 286 219 b 291 228 292 236 287 246 b 286 245 285 244 285 243 b 278 220 265 201 253 181 b 240 161 226 142 213 122 b 209 115 205 107 199 100 b 191 89 181 80 173 69 b 159 51 143 36 125 22 b 124 21 122 21 118 19 b 119 33 121 45 121 57 b 122 75 122 93 123 111 b 123 122 123 133 125 143 b 127 157 127 171 126 185 b 126 200 126 215 126 230 b 126 242 127 285 127 297 b 126 305 123 369 124 378 b 124 391 127 405 129 419 b 135 419 143 419 151 419 b 156 419 160 417 165 417 b 177 416 188 416 200 415 b 208 414 208 414 206 422 b 214 428 214 430 208 435 b 203 439 196 441 190 442 b 171 447 151 446 132 442 b 127 441 124 442 123 448 b 123 452 121 457 120 461 b 116 469 111 507 108 516 b 104 530 100 545 95 559 b 93 565 91 571 88 577 b 81 592 68 598 52 601 b 37 603 30 597 28 583 b 28 579 29 574 28 570 b 27 543 25 485 23 457 b 23 451 22 446 21 440 b 16 440 11 441 7 440 b -7 440 -21 439 -35 439 b -42 438 -48 439 -54 437 b -62 434 -71 430 -79 426 z"},"M":{"x_min":0,"x_max":660,"ha":660,"o":"m -15 612 b -13 598 -11 585 -10 573 b -6 535 -1 495 2 457 b 4 416 4 376 6 335 b 6 295 8 256 12 216 b 14 192 19 167 22 142 b 24 109 28 76 31 43 b 34 11 36 -21 38 -53 b 40 -64 53 -73 64 -73 b 72 -73 75 -69 74 -60 b 74 -51 76 -41 78 -33 b 79 -28 84 -23 83 -20 b 79 -8 88 -7 94 0 b 103 11 115 23 118 37 b 127 67 131 99 135 130 b 141 161 146 191 149 221 b 151 250 146 279 155 308 b 171 358 181 409 195 460 b 197 468 204 475 210 487 b 215 478 218 475 219 470 b 222 456 224 442 225 428 b 229 401 230 374 234 348 b 238 318 244 288 247 257 b 252 213 253 169 256 126 b 258 96 284 76 313 84 b 316 95 318 108 320 120 b 322 129 324 137 326 147 b 327 152 328 159 329 164 b 330 172 331 179 332 187 b 333 195 334 202 337 210 b 340 217 342 226 348 231 b 376 257 373 292 379 323 b 381 338 382 353 388 366 b 402 402 417 438 431 474 b 438 491 442 509 450 530 b 454 485 457 443 460 401 b 465 351 473 303 474 253 b 477 206 477 158 474 111 b 470 65 478 22 489 -22 b 500 -60 520 -95 543 -127 b 570 -164 606 -188 650 -198 b 673 -203 697 -204 719 -216 b 723 -218 728 -216 733 -216 b 730 -211 728 -206 724 -204 b 708 -197 692 -194 677 -187 b 659 -180 641 -175 626 -160 b 616 -150 619 -140 614 -132 b 603 -114 602 -93 601 -74 b 598 -27 598 21 598 68 b 597 76 597 86 598 94 b 608 136 610 179 609 222 b 608 253 612 284 611 314 b 611 346 608 378 606 409 b 604 429 600 449 602 469 b 604 493 600 516 590 538 b 574 570 542 580 509 584 b 495 587 480 583 466 584 b 441 584 434 579 429 554 b 429 553 428 551 427 549 b 415 521 403 491 390 463 b 382 447 375 432 365 415 b 355 433 345 448 336 464 b 325 488 311 508 287 517 b 264 524 241 525 218 516 b 201 510 193 499 188 484 b 176 449 166 413 155 378 b 154 376 152 374 150 370 b 150 396 150 418 150 442 b 150 446 149 452 147 456 b 143 470 135 482 131 496 b 125 516 122 536 116 555 b 113 566 107 574 102 584 b 96 593 89 602 82 612 b 69 627 58 645 42 656 b 23 670 -25 655 -37 634 b -51 608 -65 582 -79 554 b -86 541 -89 527 -95 514 b -94 513 -92 511 -90 510 b -85 514 -77 518 -73 522 b -69 531 -66 541 -61 550 b -51 572 -43 598 -15 612 z"},"g":{"x_min":0,"x_max":381,"ha":381,"o":"m 257 9 b 258 16 259 22 261 28 b 264 37 268 46 270 56 b 274 68 275 80 278 92 b 283 111 288 129 285 150 b 284 158 284 167 285 176 b 288 192 291 208 295 223 b 302 248 292 267 275 285 b 268 292 257 296 250 304 b 237 317 224 317 208 313 b 198 310 196 303 195 295 b 193 282 191 268 191 255 b 190 239 181 226 183 209 b 185 199 182 189 181 178 b 179 159 178 139 175 120 b 171 102 163 84 150 70 b 145 64 138 60 133 54 b 124 44 113 37 101 33 b 96 32 89 32 84 34 b 78 37 78 43 78 49 b 79 68 72 88 77 107 b 80 118 83 128 87 138 b 90 148 93 158 96 167 b 98 173 99 180 102 185 b 110 201 119 217 127 232 b 131 240 135 249 140 257 b 148 269 152 283 155 298 b 156 306 160 308 167 303 b 171 300 175 297 179 302 b 183 306 185 311 181 316 b 178 320 177 323 174 326 b 165 339 157 352 139 354 b 134 354 128 358 123 354 b 122 353 121 354 119 354 b 117 354 114 355 112 354 b 101 344 90 335 79 324 b 70 315 62 305 55 295 b 46 283 37 272 29 260 b 20 247 15 232 10 218 b 7 207 3 197 0 187 b -2 180 -5 174 -5 168 b -7 158 -7 148 -8 139 b -8 133 -9 128 -8 123 b -4 107 -2 90 7 75 b 15 64 23 53 31 41 b 38 30 50 26 61 19 b 78 8 98 6 117 3 b 128 1 135 7 136 15 b 136 21 139 23 143 24 b 145 25 147 25 148 27 b 155 35 168 39 170 52 b 172 49 172 47 172 45 b 172 37 172 28 172 20 b 171 9 172 -2 171 -14 b 170 -27 169 -40 167 -53 b 167 -57 164 -62 161 -65 b 151 -74 139 -82 130 -91 b 115 -106 101 -123 87 -139 b 83 -144 79 -150 76 -156 b 69 -172 71 -191 72 -209 b 72 -210 72 -211 73 -212 b 79 -221 85 -230 91 -239 b 99 -251 112 -257 125 -260 b 134 -262 141 -261 148 -257 b 157 -252 162 -244 166 -235 b 168 -230 169 -224 172 -219 b 178 -209 188 -203 196 -195 b 199 -192 203 -189 204 -184 b 206 -177 207 -168 208 -160 b 209 -152 210 -143 211 -135 b 213 -122 218 -110 218 -98 b 218 -80 224 -65 228 -49 b 228 -47 230 -45 232 -44 b 254 -25 278 -7 300 12 b 310 20 317 32 325 41 b 328 44 414 145 408 147 b 399 150 395 149 389 143 b 367 118 346 93 323 69 b 308 53 291 38 275 23 b 270 18 263 14 257 9 z m 162 -104 b 161 -114 160 -125 159 -135 b 158 -151 158 -167 156 -183 b 155 -196 153 -208 149 -220 b 147 -229 131 -232 122 -230 b 104 -226 97 -211 87 -199 b 86 -198 85 -196 85 -195 b 86 -187 86 -180 88 -173 b 88 -170 92 -168 94 -166 b 98 -163 102 -161 105 -157 b 112 -150 118 -143 125 -136 b 128 -133 133 -131 136 -128 b 138 -127 139 -125 140 -124 b 147 -117 154 -110 161 -103 b 161 -103 162 -104 162 -104 z"},"j":{"x_min":0,"x_max":226,"ha":226,"o":"m 275 271 b 233 223 189 173 146 124 b 145 125 144 125 144 126 b 144 143 144 160 144 177 b 144 181 143 186 142 190 b 137 207 131 225 126 243 b 122 257 119 271 115 285 b 110 302 105 317 99 332 b 96 342 93 351 83 356 b 79 358 76 363 71 367 b 69 368 64 369 59 371 b 54 373 50 376 44 377 b 32 381 19 381 6 380 b -6 378 -15 377 -23 369 b -33 360 -35 345 -27 335 b -22 328 -19 321 -16 314 b -6 285 4 257 12 229 b 19 206 25 184 29 161 b 31 138 36 114 41 91 b 43 87 43 82 44 78 b 46 59 47 40 51 22 b 53 4 58 -12 41 -25 b 41 -26 40 -27 40 -27 b 31 -45 21 -63 12 -80 b -2 -109 -15 -137 -19 -170 b -21 -188 -20 -204 -13 -220 b -7 -234 4 -247 20 -253 b 30 -256 44 -262 50 -253 b 58 -240 69 -234 82 -229 b 96 -223 100 -209 108 -197 b 118 -178 128 -161 132 -139 b 136 -118 141 -98 145 -78 b 152 -55 159 -32 157 -7 b 156 2 156 12 156 21 b 155 38 154 69 154 86 b 154 88 155 92 156 94 b 171 115 187 138 203 159 b 210 168 218 177 226 186 b 233 198 240 210 248 222 b 254 231 261 242 269 250 b 282 262 275 276 275 271 z m 56 -122 b 56 -134 57 -147 56 -158 b 53 -175 51 -191 46 -208 b 43 -224 25 -230 11 -222 b 6 -219 0 -214 -5 -209 b -6 -208 -6 -204 -5 -202 b 3 -181 8 -161 17 -139 b 18 -135 21 -130 24 -125 b 32 -109 41 -92 50 -76 b 51 -72 52 -67 53 -63 b 54 -63 54 -63 56 -63 b 57 -65 58 -67 58 -71 b 57 -88 57 -105 56 -122 z m 0 465 b 19 460 38 454 56 449 b 57 449 57 450 57 452 b 70 449 80 455 88 466 b 97 479 85 498 73 505 b 59 513 44 515 27 514 b 20 514 13 513 7 512 b -7 509 -21 507 -34 504 b -45 500 -47 493 -40 485 b -34 480 -28 476 -21 473 b -15 469 -7 467 0 465 z"},"i":{"x_min":0,"x_max":188,"ha":188,"o":"m 36 376 b 50 373 64 370 78 367 b 94 367 106 376 116 384 b 121 388 123 397 122 403 b 121 411 120 421 109 424 b 97 426 85 431 74 430 b 60 429 47 423 34 420 b 25 417 18 413 18 403 b 18 393 27 379 36 376 z m 228 186 b 224 190 225 187 220 189 b 217 183 216 178 214 173 b 192 131 171 89 138 55 b 127 44 118 31 101 28 b 95 27 90 24 84 22 b 86 29 87 35 95 36 b 99 36 103 42 105 45 b 107 48 106 52 106 56 b 107 82 110 109 116 134 b 116 138 116 141 116 145 b 117 155 118 166 118 176 b 119 192 120 208 120 224 b 120 231 120 238 119 245 b 118 249 117 253 116 257 b 115 265 116 274 112 281 b 103 293 96 308 80 314 b 69 318 58 324 47 324 b 29 324 19 315 15 297 b 14 293 14 289 13 285 b 11 275 9 265 8 255 b 6 242 5 229 4 216 b 2 193 -1 171 0 148 b 2 127 -2 106 5 84 b 8 73 9 62 12 52 b 19 32 30 16 50 7 b 63 2 75 2 87 4 b 97 5 108 9 118 11 b 124 14 131 25 136 29 b 154 43 167 63 180 83 b 184 90 187 100 191 107 b 204 130 213 152 223 173 b 226 180 232 182 228 186 z m 118 11 b 114 10 122 13 118 11 z"},"y":{"x_min":0,"x_max":341,"ha":341,"o":"m 114 68 b 114 80 114 91 115 102 b 115 105 116 108 118 109 b 125 113 128 118 128 125 b 129 132 128 139 130 146 b 135 167 134 188 132 210 b 131 220 132 230 131 241 b 130 251 128 261 125 270 b 121 281 115 291 112 302 b 105 322 96 340 75 351 b 63 358 52 359 41 358 b 21 356 9 343 1 326 b 0 325 0 321 1 320 b 6 317 11 312 16 312 b 22 311 28 313 34 314 b 37 302 36 290 34 277 b 33 261 31 245 29 229 b 28 222 27 214 26 207 b 25 195 22 184 22 173 b 22 158 23 142 23 127 b 23 108 21 89 20 70 b 20 64 22 58 22 51 b 21 40 25 28 28 17 b 28 16 28 15 29 14 b 42 2 56 -6 74 -3 b 96 1 113 15 127 31 b 139 44 150 58 161 72 b 168 82 176 92 183 101 b 189 109 196 116 202 124 b 203 124 203 123 204 123 b 203 116 203 110 202 103 b 201 92 201 82 200 71 b 200 64 199 56 199 49 b 196 27 194 5 191 -16 b 190 -27 191 -38 181 -45 b 178 -47 176 -49 174 -51 b 162 -64 151 -77 140 -89 b 127 -104 114 -119 98 -131 b 96 -132 95 -136 93 -137 b 83 -141 76 -149 71 -158 b 64 -171 60 -185 58 -200 b 55 -229 63 -258 92 -276 b 100 -281 109 -285 119 -281 b 124 -279 129 -275 134 -271 b 141 -264 149 -257 156 -250 b 157 -250 157 -250 157 -249 b 161 -236 172 -228 181 -220 b 186 -215 192 -207 192 -201 b 191 -189 198 -180 202 -170 b 208 -155 216 -143 228 -132 b 248 -116 256 -92 261 -67 b 263 -56 266 -44 269 -33 b 272 -21 275 -9 279 2 b 281 7 283 13 287 17 b 290 22 295 26 299 30 b 311 41 323 51 335 61 b 352 76 367 93 380 111 b 383 116 387 121 388 128 b 389 134 384 135 382 139 b 380 138 378 136 376 134 b 374 132 372 130 370 128 b 359 117 348 107 337 97 b 321 83 305 69 288 55 b 287 56 286 57 286 58 b 287 71 289 83 290 96 b 291 110 294 125 293 139 b 292 151 295 164 288 176 b 286 179 285 182 285 186 b 282 199 280 213 276 226 b 274 232 269 239 264 241 b 239 252 220 235 214 211 b 212 202 209 193 205 185 b 201 177 197 171 192 164 b 184 151 177 138 167 127 b 155 112 142 99 129 85 b 124 80 119 74 114 68 z m 182 -87 b 181 -96 181 -105 180 -113 b 179 -126 178 -138 176 -149 b 174 -160 171 -171 167 -181 b 158 -205 147 -227 137 -250 b 137 -251 137 -253 136 -253 b 127 -259 118 -265 109 -269 b 104 -271 99 -269 94 -264 b 88 -257 88 -249 85 -242 b 77 -220 81 -201 94 -184 b 98 -179 100 -173 104 -167 b 106 -163 108 -160 110 -156 b 113 -153 115 -149 120 -147 b 125 -146 128 -141 131 -137 b 142 -126 153 -115 164 -104 b 170 -98 176 -93 182 -87 z"},"@":{"x_min":0,"x_max":673,"ha":673,"o":"m 398 -20 b 383 -25 378 -30 367 -30 b 352 -30 342 -30 327 -30 b 297 -25 266 -15 236 1 b 221 5 206 16 191 25 b 175 36 160 51 145 66 b 140 76 130 91 125 101 b 120 122 115 146 115 167 b 110 187 104 213 120 237 b 120 243 120 247 120 252 b 125 258 125 267 130 273 b 135 288 145 303 156 323 b 171 353 186 389 216 409 b 231 414 246 424 256 429 b 271 440 281 455 297 459 b 322 475 342 485 357 505 b 367 511 378 515 387 515 b 408 511 423 505 438 505 b 463 500 478 485 499 465 b 514 444 534 420 549 394 b 569 379 579 359 579 334 b 584 299 590 263 579 228 b 575 197 569 172 560 146 b 554 131 549 122 544 116 b 529 96 508 81 489 71 b 473 66 463 61 458 81 b 454 86 454 86 448 91 b 448 96 443 107 448 116 b 454 122 458 131 463 137 b 469 152 469 161 478 172 b 489 182 493 187 499 202 b 504 222 493 252 473 263 b 473 263 473 263 469 263 b 454 258 433 252 423 237 b 413 213 398 192 393 167 b 393 167 393 161 387 161 b 367 146 352 131 331 116 b 316 111 307 107 297 101 b 281 96 277 107 277 116 b 281 126 286 137 292 146 b 301 177 312 202 327 228 b 337 247 337 263 331 282 b 331 314 342 338 357 364 b 357 364 363 364 363 364 b 383 369 402 364 413 344 b 423 334 433 318 443 303 b 448 293 458 293 463 293 b 469 299 469 314 469 318 b 458 334 448 349 448 364 b 448 369 448 369 443 369 b 428 384 418 399 393 399 b 367 399 342 394 322 379 b 322 379 316 374 316 374 b 292 364 271 349 256 329 b 241 303 226 282 216 258 b 210 237 201 217 201 202 b 195 157 210 122 246 96 b 262 81 281 71 297 66 b 312 61 331 61 342 76 b 348 76 348 76 348 76 b 363 86 378 91 393 101 b 393 101 398 107 402 107 b 413 91 423 81 433 66 b 448 46 473 36 499 36 b 524 36 539 46 560 61 b 579 71 584 91 590 111 b 595 122 599 126 599 137 b 605 146 610 152 610 157 b 614 177 620 197 630 217 b 635 232 635 247 635 263 b 640 278 630 299 630 314 b 625 334 614 353 610 374 b 610 379 610 384 605 394 b 605 414 590 429 575 440 b 569 440 564 444 564 444 b 544 465 529 480 514 500 b 489 526 458 530 428 535 b 398 541 367 546 337 546 b 322 546 307 546 292 546 b 262 541 231 535 206 520 b 180 505 156 490 135 470 b 110 450 89 424 74 394 b 59 374 50 353 44 334 b 29 282 24 228 29 177 b 34 146 39 122 54 96 b 69 66 89 40 120 20 b 150 -5 175 -30 210 -45 b 231 -51 246 -55 266 -55 b 281 -55 297 -55 316 -55 b 342 -60 363 -60 387 -51 b 393 -51 393 -51 393 -51 b 393 -40 393 -30 398 -20 z"},".":{"x_min":0,"x_max":177,"ha":177,"o":"m 80 102 b 76 102 72 102 72 102 b 57 102 45 98 41 86 b 37 79 37 67 37 59 b 37 41 37 41 49 37 b 53 37 57 33 61 29 b 68 26 80 18 88 14 b 106 6 117 10 125 26 b 129 33 129 41 137 49 b 141 63 141 79 133 86 b 117 98 102 102 80 102 z"},"p":{"x_min":0,"x_max":403,"ha":403,"o":"m -21 -229 b -18 -229 -17 -229 -17 -230 b -5 -230 8 -229 19 -232 b 44 -239 64 -231 82 -216 b 84 -214 86 -211 86 -208 b 91 -190 106 -111 109 -93 b 110 -90 109 -86 109 -83 b 110 -73 112 -64 113 -55 b 115 -35 116 -15 117 5 b 118 21 118 37 118 53 b 118 59 119 66 119 73 b 120 82 120 90 120 99 b 120 110 120 121 119 131 b 118 148 116 166 115 183 b 114 185 115 187 116 189 b 126 202 135 216 146 228 b 166 251 191 270 215 288 b 221 292 230 293 237 295 b 238 295 240 293 241 292 b 246 285 253 278 256 269 b 260 259 262 247 261 236 b 258 217 256 197 249 178 b 245 168 240 160 231 155 b 223 151 215 146 208 141 b 199 136 192 128 183 124 b 158 112 141 93 135 66 b 132 55 137 40 148 34 b 163 25 180 20 197 17 b 202 16 209 14 213 11 b 223 2 234 1 247 3 b 251 4 256 5 260 5 b 273 6 283 11 290 22 b 295 29 302 36 308 42 b 312 46 318 50 322 54 b 333 68 344 82 348 100 b 349 109 352 117 353 126 b 355 142 356 172 357 188 b 357 190 359 194 361 195 b 379 205 388 215 406 225 b 411 228 425 237 429 241 b 436 249 441 251 447 259 b 456 270 457 270 463 282 b 463 282 463 283 461 284 b 430 251 392 228 353 205 b 351 212 348 217 347 223 b 345 233 339 240 333 247 b 321 260 309 272 297 284 b 288 292 280 301 270 307 b 252 319 232 317 212 311 b 196 306 181 296 169 284 b 151 267 133 248 115 230 b 113 228 111 225 108 222 b 108 233 107 242 106 251 b 105 267 104 284 102 301 b 101 307 101 314 98 320 b 93 334 82 345 71 355 b 67 357 64 360 60 362 b 51 366 43 370 32 366 b 26 364 23 361 23 355 b 22 337 22 319 20 301 b 19 285 16 269 13 253 b 13 252 13 252 13 251 b 13 238 12 226 12 213 b 12 206 11 199 11 192 b 10 189 11 185 11 182 b 10 167 8 153 7 139 b 6 130 7 120 7 111 b 7 102 7 93 7 84 b 6 77 7 71 7 65 b 6 53 5 41 4 29 b 4 24 4 18 3 13 b 2 2 1 -8 0 -19 b -1 -34 -1 -50 -2 -65 b -3 -79 -4 -93 -5 -107 b -7 -127 -19 -208 -21 -229 z m 213 114 b 212 110 210 107 208 103 b 204 97 200 91 195 84 b 189 75 180 69 168 70 b 163 70 159 69 155 69 b 173 86 188 106 213 114 z"},"X":{"x_min":0,"x_max":491,"ha":491,"o":"m 182 223 b 198 191 226 144 242 111 b 249 96 256 80 264 65 b 276 41 290 18 301 -6 b 319 -47 335 -89 363 -125 b 373 -138 380 -142 396 -141 b 418 -139 439 -141 454 -117 b 464 -102 467 -89 462 -73 b 458 -58 447 -56 435 -54 b 422 -52 415 -42 415 -29 b 415 -21 413 -13 415 -6 b 418 12 413 30 424 47 b 427 51 428 60 426 65 b 412 98 397 131 382 164 b 363 207 342 250 322 293 b 314 310 293 342 284 361 b 303 385 322 411 343 436 b 357 452 375 465 377 488 b 377 491 379 494 381 497 b 389 512 402 526 405 542 b 409 559 417 568 429 578 b 438 587 443 600 452 609 b 472 632 506 639 528 661 b 537 671 540 686 533 693 b 522 707 519 708 500 695 b 495 692 489 688 485 684 b 469 669 450 656 439 638 b 410 589 374 546 339 502 b 325 485 310 470 296 454 b 282 438 268 421 254 404 b 249 413 245 420 241 427 b 228 454 216 480 204 507 b 195 526 182 545 181 568 b 180 595 162 612 139 622 b 107 635 73 640 39 626 b 26 621 12 612 4 601 b 0 596 10 582 13 571 b 14 569 15 566 15 564 b 19 554 21 543 25 534 b 35 511 44 488 56 466 b 75 431 97 397 118 361 b 134 333 150 303 165 274 b 166 272 165 269 164 267 b 152 248 139 230 128 210 b 104 166 82 121 58 78 b 42 49 25 21 8 -7 b -5 -28 -19 -48 -33 -68 b -19 -76 -16 -56 -8 -46 b 6 -26 21 -6 35 14 b 51 36 68 57 82 80 b 94 98 100 121 113 139 b 134 168 159 195 182 223 z"},"*":{"x_min":0,"x_max":231,"ha":231,"o":"m 155 527 b 155 527 155 531 155 531 b 161 525 168 518 174 512 b 185 501 198 498 211 501 b 218 501 221 505 218 514 b 214 518 211 525 207 527 b 201 534 194 541 191 545 b 194 547 198 547 205 551 b 207 551 214 554 218 558 b 221 560 224 564 224 564 b 224 567 221 571 218 571 b 207 574 194 574 185 578 b 178 578 168 580 161 580 b 165 587 172 593 172 600 b 174 607 178 611 181 613 b 188 617 191 617 194 617 b 205 624 211 626 214 637 b 218 640 214 643 211 646 b 207 650 205 657 198 650 b 194 646 188 643 185 640 b 172 626 159 617 145 604 b 141 604 141 607 141 607 b 141 613 139 620 139 624 b 135 640 132 650 119 657 b 108 663 99 659 99 646 b 95 637 93 624 89 611 b 75 624 60 640 36 640 b 36 637 40 633 40 633 b 49 620 60 611 69 600 b 75 593 79 591 86 584 b 69 584 53 584 36 584 b 29 584 23 584 16 580 b 16 580 13 578 9 574 b 9 574 13 571 16 567 b 20 567 23 567 27 567 b 46 564 62 564 82 560 b 73 551 62 545 56 538 b 46 531 40 521 29 514 b 56 501 73 514 89 534 b 89 521 89 512 89 501 b 89 498 93 492 93 485 b 93 481 95 479 95 479 b 106 479 112 475 122 475 b 132 475 139 481 141 492 b 148 501 159 514 155 527 z"},"Y":{"x_min":0,"x_max":548,"ha":548,"o":"m 459 128 b 455 145 452 158 450 171 b 446 185 444 199 439 212 b 430 241 418 271 418 302 b 419 319 416 336 416 353 b 417 373 420 393 421 413 b 421 423 423 435 418 443 b 411 457 384 461 372 450 b 350 432 333 410 327 382 b 323 365 320 345 311 331 b 297 305 277 282 259 258 b 239 233 218 208 197 183 b 195 181 192 179 188 175 b 191 197 195 217 198 236 b 201 256 205 275 205 295 b 205 320 202 347 200 373 b 199 386 199 397 196 409 b 195 420 190 429 188 440 b 186 454 184 468 181 482 b 175 504 169 527 165 550 b 158 577 154 604 136 626 b 125 640 116 656 100 666 b 79 679 56 683 33 675 b 15 669 -1 655 -15 641 b -21 635 -25 624 -30 616 b -20 614 -9 610 1 612 b 15 614 27 620 40 624 b 41 618 43 613 43 607 b 48 573 36 539 39 504 b 39 502 38 499 38 497 b 36 485 34 475 33 465 b 29 444 26 422 23 401 b 21 385 19 369 17 353 b 17 342 15 330 15 318 b 14 314 9 313 11 305 b 14 287 11 268 11 249 b 10 240 8 230 8 221 b 8 209 9 197 9 184 b 9 177 10 168 9 160 b 7 134 -2 108 2 82 b 5 64 7 48 20 35 b 27 29 34 21 41 17 b 55 10 68 2 82 -2 b 100 -6 108 -1 117 15 b 119 19 123 23 127 25 b 146 34 165 44 176 63 b 185 78 195 93 206 107 b 217 123 228 138 240 153 b 259 178 278 202 297 228 b 301 234 305 240 311 249 b 311 242 312 239 312 236 b 311 221 309 204 308 189 b 305 156 304 123 300 89 b 298 59 294 29 289 -2 b 286 -17 285 -34 271 -45 b 250 -63 230 -83 210 -102 b 194 -118 179 -135 162 -149 b 138 -169 115 -190 98 -215 b 64 -266 51 -321 63 -382 b 69 -412 85 -436 115 -446 b 136 -455 159 -461 181 -467 b 186 -468 194 -465 197 -461 b 207 -451 216 -438 231 -433 b 238 -430 246 -427 251 -421 b 262 -410 270 -397 277 -383 b 290 -354 310 -327 313 -293 b 313 -288 314 -282 315 -276 b 321 -257 328 -239 335 -220 b 338 -212 341 -203 344 -194 b 355 -170 376 -152 384 -125 b 394 -98 411 -72 422 -44 b 432 -22 438 3 445 27 b 450 43 451 59 456 73 b 467 103 490 122 513 142 b 531 158 545 176 558 197 b 561 202 561 209 563 218 b 527 187 495 159 459 128 z m 264 -96 b 266 -101 267 -104 267 -107 b 258 -157 249 -206 239 -255 b 233 -286 227 -317 216 -346 b 206 -374 187 -399 172 -424 b 168 -431 163 -432 156 -429 b 149 -426 143 -424 136 -422 b 98 -412 91 -401 90 -363 b 90 -351 94 -339 98 -327 b 104 -312 112 -297 116 -281 b 125 -256 133 -233 154 -214 b 187 -183 219 -148 251 -115 b 255 -110 259 -104 264 -96 z"},"c":{"x_min":0,"x_max":275,"ha":275,"o":"m 141 331 b 145 325 148 322 151 318 b 158 307 184 322 181 330 b 178 335 174 340 171 345 b 169 348 167 362 166 365 b 159 384 158 381 153 389 b 140 393 127 396 110 390 b 104 388 98 383 93 378 b 89 375 83 374 80 367 b 79 363 72 361 69 358 b 61 350 55 341 47 333 b 38 324 34 313 27 302 b 21 292 15 282 11 271 b 5 256 1 241 -4 226 b -6 218 -8 210 -9 202 b -11 193 -13 183 -13 174 b -14 159 -16 145 -14 131 b -13 113 -9 96 -4 79 b -1 68 3 56 10 48 b 21 35 33 23 46 13 b 60 2 74 -8 93 -10 b 104 -10 114 -12 124 -13 b 135 -14 146 -15 156 -10 b 171 -3 183 9 194 21 b 200 27 203 34 204 42 b 205 51 209 58 215 64 b 223 72 230 79 236 88 b 240 92 241 98 245 102 b 251 111 259 120 265 129 b 271 138 275 148 283 156 b 292 179 299 183 301 202 b 302 208 300 210 295 210 b 289 210 283 209 283 205 b 283 201 276 192 275 188 b 267 164 255 149 241 129 b 228 108 215 88 201 68 b 194 57 186 46 177 37 b 165 26 154 16 138 11 b 125 7 114 6 101 8 b 98 9 95 9 93 10 b 73 21 63 40 60 60 b 55 85 53 112 61 137 b 65 148 71 159 76 170 b 81 181 88 191 93 201 b 98 213 103 224 106 237 b 108 248 113 258 117 268 b 121 278 125 288 129 298 b 133 308 137 319 141 331 z"},"!":{"x_min":0,"x_max":291,"ha":291,"o":"m 75 234 b 79 231 79 219 79 213 b 79 204 96 193 100 198 b 106 198 106 204 106 204 b 100 213 111 213 117 219 b 117 219 121 225 121 225 b 121 234 126 246 126 255 b 126 278 147 293 164 293 b 185 293 195 308 195 323 b 200 340 206 361 210 382 b 215 412 215 445 221 477 b 221 507 227 534 227 566 b 227 575 227 590 231 602 b 242 634 215 676 185 679 b 159 685 126 685 100 676 b 96 670 91 664 91 658 b 91 634 91 611 91 590 b 91 575 91 566 91 554 b 85 518 85 477 85 439 b 85 424 85 409 79 391 b 79 367 79 340 79 314 b 85 302 85 299 85 287 b 79 272 79 251 75 234 z m 117 130 b 117 130 117 130 117 130 b 111 130 106 130 100 130 b 100 130 96 130 91 124 b 79 124 64 115 64 104 b 64 89 64 73 64 56 b 64 53 64 41 64 35 b 64 20 70 15 85 15 b 100 11 117 11 132 5 b 159 0 185 5 200 32 b 210 47 210 62 210 83 b 210 100 185 121 168 124 b 153 124 132 130 117 130 z"},"/":{"x_min":0,"x_max":442,"ha":442,"o":"m 12 -65 b 24 -77 33 -77 45 -65 b 45 -65 56 -59 62 -59 b 62 -59 65 -59 65 -56 b 71 -50 77 -56 89 -56 b 95 -56 95 -59 98 -59 b 115 -59 127 -50 130 -39 b 136 -24 142 -12 148 0 b 160 21 166 38 175 53 b 181 71 192 86 201 109 b 213 124 231 142 240 157 b 251 177 263 195 272 216 b 296 248 311 281 328 313 b 337 331 337 352 349 375 b 361 402 370 434 382 461 b 387 467 387 479 393 485 b 408 517 420 550 408 585 b 402 609 393 630 376 653 b 361 668 343 662 334 647 b 322 624 305 603 296 582 b 290 570 284 565 284 559 b 278 550 278 538 272 526 b 263 499 251 467 240 440 b 231 417 219 390 207 369 b 198 343 186 319 175 293 b 154 254 142 213 121 168 b 104 136 89 97 65 65 b 56 41 50 26 39 6 b 33 -6 24 -12 24 -24 b 18 -33 12 -50 12 -65 z"},"[":{"x_min":0,"x_max":319,"ha":319,"o":"m 282 620 b 271 620 271 631 260 631 b 235 631 213 631 202 631 b 168 631 146 631 113 631 b 113 631 100 631 88 631 b 77 631 77 620 66 609 b 66 598 66 575 66 551 b 66 506 66 462 66 415 b 66 349 66 291 66 224 b 55 180 66 122 55 78 b 55 42 55 -2 55 -36 b 55 -58 55 -94 44 -116 b 44 -127 44 -127 44 -138 b 66 -138 88 -127 100 -127 b 135 -116 168 -105 213 -116 b 235 -127 260 -127 282 -116 b 293 -116 304 -116 304 -94 b 282 -80 282 -80 260 -80 b 235 -80 202 -80 168 -69 b 191 42 191 144 191 258 b 202 371 168 484 168 598 b 202 598 248 598 282 620 z"},"6":{"x_min":0,"x_max":352,"ha":352,"o":"m 220 492 b 235 492 246 489 256 489 b 264 489 271 489 275 492 b 278 496 278 503 275 511 b 271 514 267 518 264 518 b 256 521 249 521 242 525 b 231 529 220 529 209 532 b 202 532 195 536 187 536 b 180 536 169 536 158 532 b 147 529 137 521 126 514 b 107 500 93 485 82 463 b 75 456 67 449 64 438 b 53 416 42 391 35 369 b 28 343 20 322 17 296 b 13 267 13 238 13 209 b 13 176 20 147 35 118 b 46 96 60 75 78 56 b 82 49 89 42 93 35 b 104 27 111 16 122 9 b 133 2 144 -2 155 -5 b 173 -16 195 -16 213 -13 b 231 -13 246 -9 260 -2 b 282 9 300 20 315 38 b 318 38 322 42 325 45 b 333 56 333 71 336 82 b 340 104 340 125 329 144 b 318 162 307 176 296 194 b 293 202 285 205 275 205 b 275 209 271 209 267 213 b 253 227 238 227 220 220 b 198 213 180 205 162 194 b 147 187 137 180 126 165 b 122 154 122 151 133 147 b 137 147 140 147 140 147 b 144 147 147 147 147 147 b 158 136 169 140 176 151 b 176 154 176 158 180 158 b 191 165 202 173 213 180 b 224 173 231 165 238 158 b 242 154 242 151 246 147 b 249 140 249 136 253 129 b 256 118 256 104 253 93 b 246 71 238 49 231 27 b 224 13 202 -2 187 6 b 180 6 173 9 169 13 b 162 16 151 24 147 31 b 144 45 137 53 129 60 b 118 75 111 89 100 104 b 100 107 97 111 97 118 b 93 136 93 158 89 180 b 82 205 86 234 93 260 b 97 278 100 296 107 314 b 118 336 129 358 140 380 b 144 387 147 398 155 405 b 158 416 166 423 173 431 b 176 434 180 442 184 445 b 202 456 213 471 220 492 z"},"r":{"x_min":0,"x_max":271,"ha":271,"o":"m 160 27 b 178 34 182 52 176 65 b 173 71 174 76 177 80 b 182 86 181 92 181 98 b 180 109 180 120 180 131 b 180 136 182 140 185 144 b 193 153 202 161 206 172 b 210 183 215 193 221 202 b 228 213 233 225 236 238 b 237 243 238 248 237 254 b 235 272 224 286 211 296 b 202 304 188 307 176 312 b 176 312 174 312 174 312 b 160 310 148 305 137 298 b 132 294 127 290 122 287 b 116 285 110 283 104 282 b 99 282 93 278 89 285 b 87 289 84 292 83 296 b 80 302 76 309 77 314 b 81 326 88 338 92 351 b 97 365 103 379 105 394 b 107 410 106 427 105 443 b 104 459 93 469 77 469 b 73 469 68 468 65 465 b 56 457 46 449 39 439 b 26 420 18 398 18 375 b 17 358 19 340 21 323 b 22 315 25 307 29 301 b 33 296 42 291 40 286 b 34 273 27 248 23 235 b 12 207 1 193 -9 165 b -10 162 -16 153 -15 152 b -11 150 -9 153 -5 154 b -2 154 -2 157 0 160 b 3 164 6 172 10 177 b 19 188 39 232 43 247 b 45 252 53 268 54 275 b 57 273 62 265 64 264 b 71 259 77 255 84 252 b 90 249 96 249 102 246 b 107 244 108 240 106 235 b 105 231 104 226 103 222 b 101 211 99 199 97 187 b 95 171 93 154 92 138 b 92 121 92 105 94 89 b 98 55 113 28 142 9 b 148 4 154 -1 161 -3 b 175 -7 188 -3 200 5 b 207 9 213 14 219 18 b 238 30 254 45 266 63 b 272 72 277 81 284 88 b 296 98 303 112 309 125 b 315 137 320 150 325 163 b 326 166 326 170 326 174 b 327 178 327 182 327 186 b 327 189 328 191 328 193 b 328 193 327 194 326 194 b 324 189 322 184 319 179 b 303 154 287 128 271 103 b 261 88 249 73 238 60 b 232 53 223 47 216 41 b 205 30 193 21 179 15 b 165 9 161 11 160 25 b 160 26 160 26 160 27 z m 84 434 b 96 423 83 373 71 358 b 68 371 70 384 73 396 b 76 408 80 420 84 434 z"},"2":{"x_min":0,"x_max":362,"ha":362,"o":"m 46 21 b 46 24 49 32 49 36 b 49 40 53 40 53 40 b 57 47 61 55 64 58 b 68 71 68 77 76 85 b 88 93 94 104 99 115 b 107 123 110 134 113 146 b 118 146 118 149 118 149 b 129 157 137 165 148 168 b 174 179 190 203 204 222 b 215 236 231 252 242 267 b 258 283 269 297 284 316 b 291 330 299 346 311 362 b 319 376 325 392 330 404 b 336 426 336 445 344 464 b 352 490 330 536 306 547 b 276 569 242 569 209 569 b 178 574 151 561 129 555 b 94 539 91 517 107 490 b 107 486 113 486 121 486 b 124 486 129 494 124 498 b 124 506 121 509 121 517 b 118 525 124 531 132 536 b 159 539 185 544 215 539 b 228 536 234 525 234 509 b 231 498 228 483 228 467 b 220 434 204 399 185 373 b 174 357 159 346 151 330 b 129 300 110 270 91 240 b 80 217 61 198 49 176 b 33 142 16 104 3 63 b 0 47 3 32 0 17 b 0 13 3 5 8 5 b 16 2 22 -3 33 -3 b 57 -6 83 -6 110 -6 b 129 -3 148 -3 167 -3 b 193 2 220 2 242 5 b 264 10 284 17 303 24 b 314 24 325 28 336 32 b 344 32 349 40 349 47 b 344 55 341 58 333 58 b 319 58 303 58 288 55 b 264 52 242 44 220 40 b 201 36 182 32 159 32 b 132 28 102 24 76 21 b 64 21 53 21 46 21 z"},"{":{"x_min":0,"x_max":344,"ha":344,"o":"m 269 639 b 283 639 283 639 291 639 b 291 639 304 639 304 639 b 313 652 304 661 291 661 b 283 661 283 661 269 661 b 248 661 226 674 204 652 b 161 617 130 578 139 522 b 139 513 139 500 139 491 b 139 448 139 413 139 369 b 139 360 130 339 130 330 b 130 330 130 317 130 317 b 117 308 117 295 108 295 b 95 273 87 265 65 252 b 43 243 43 243 43 221 b 43 208 52 199 73 199 b 73 199 87 199 87 199 b 108 199 108 199 108 186 b 108 164 117 156 117 143 b 117 77 108 25 130 -40 b 130 -49 130 -71 130 -84 b 139 -106 139 -136 161 -149 b 182 -171 217 -180 239 -193 b 248 -201 269 -193 291 -193 b 291 -180 291 -180 304 -171 b 248 -180 226 -158 217 -127 b 217 -106 217 -92 226 -84 b 226 -62 226 -49 226 -40 b 239 -18 239 -5 239 3 b 248 60 248 112 226 164 b 226 178 217 186 204 199 b 195 208 174 221 161 230 b 174 230 182 243 195 252 b 226 265 239 286 239 317 b 248 347 248 369 261 404 b 261 413 261 426 261 434 b 261 456 239 478 239 500 b 239 522 226 535 217 556 b 226 565 239 578 239 600 b 239 617 248 630 269 639 z"},"9":{"x_min":0,"x_max":334,"ha":334,"o":"m 238 315 b 242 315 242 315 242 315 b 238 288 234 261 230 230 b 226 215 218 199 215 184 b 203 149 184 122 157 99 b 153 91 145 87 137 80 b 126 72 114 60 103 53 b 87 41 76 22 56 22 b 41 22 30 22 14 30 b -1 41 -5 57 -13 72 b -21 80 -17 87 -13 95 b -1 111 6 126 14 141 b 22 149 18 157 6 157 b 3 157 -5 153 -5 149 b -13 134 -21 118 -24 103 b -28 91 -24 80 -24 68 b -21 60 -17 53 -17 49 b -17 45 -17 45 -13 45 b -9 33 -1 26 6 14 b 14 6 26 -1 37 -5 b 37 -9 41 -5 45 -5 b 49 -5 56 -5 60 -5 b 64 -5 72 -9 76 -9 b 91 -5 103 -1 118 3 b 137 6 153 6 172 10 b 188 18 207 26 218 37 b 234 53 257 60 265 80 b 276 99 292 118 299 141 b 311 165 315 188 323 215 b 326 226 330 242 334 257 b 334 269 338 284 338 299 b 338 315 338 334 334 350 b 330 369 326 388 323 411 b 315 431 307 454 296 473 b 288 492 272 508 257 523 b 253 527 249 535 242 539 b 234 546 222 550 215 558 b 199 569 184 569 176 554 b 172 550 176 542 184 539 b 188 539 195 535 199 531 b 203 515 211 500 218 485 b 222 465 226 442 230 423 b 234 407 230 396 226 384 b 218 365 207 350 191 338 b 176 326 161 315 141 315 b 118 311 103 311 95 334 b 87 350 83 369 87 392 b 91 407 91 427 95 442 b 99 454 99 469 107 481 b 110 492 114 504 114 515 b 114 531 126 539 134 550 b 141 558 141 562 141 569 b 137 577 126 581 118 577 b 103 573 91 566 76 558 b 49 539 33 512 18 485 b 6 458 3 431 3 407 b 6 384 14 361 26 342 b 37 330 49 319 64 307 b 80 296 99 288 118 284 b 149 280 180 284 207 292 b 215 296 222 299 230 307 b 234 307 238 311 238 315 z"}," ":{"x_min":0,"x_max":199,"ha":199,"o":""},"I":{"x_min":0,"x_max":258,"ha":258,"o":"m 1 625 b 6 621 11 617 16 615 b 23 613 31 614 39 612 b 42 611 48 607 48 604 b 50 579 50 553 51 527 b 51 514 49 502 49 489 b 48 468 49 447 48 427 b 48 386 48 346 47 306 b 47 278 46 251 44 223 b 43 198 41 173 39 148 b 36 113 33 79 30 44 b 29 36 26 31 18 29 b 14 28 9 19 10 18 b 16 9 23 1 31 -5 b 34 -8 42 -3 48 -1 b 60 2 72 8 84 10 b 112 13 142 12 167 31 b 177 39 188 47 193 59 b 197 71 200 82 203 94 b 204 95 202 98 201 99 b 199 100 197 100 195 99 b 193 99 192 96 190 96 b 188 95 185 94 183 95 b 182 96 182 99 183 101 b 185 112 188 123 189 134 b 192 170 194 207 196 244 b 197 257 198 271 199 284 b 199 289 197 294 197 299 b 197 307 200 314 200 322 b 200 346 199 369 200 393 b 200 415 200 437 201 459 b 203 481 202 503 207 525 b 213 551 215 577 202 601 b 202 607 203 613 204 620 b 205 620 208 621 211 621 b 221 621 226 626 231 634 b 235 639 232 646 225 646 b 216 646 206 645 196 644 b 173 640 151 639 128 642 b 113 644 97 646 82 641 b 76 639 69 636 64 638 b 41 645 22 636 1 625 z"},"H":{"x_min":0,"x_max":453,"ha":453,"o":"m 324 -123 b 354 -120 375 -102 383 -78 b 394 -48 402 -16 398 18 b 395 43 396 69 396 95 b 396 116 398 138 398 159 b 398 182 395 204 395 226 b 394 274 394 322 394 370 b 394 378 394 385 395 393 b 396 415 397 437 399 458 b 400 480 400 502 402 524 b 404 541 409 557 412 573 b 417 597 420 621 424 645 b 427 659 429 674 418 685 b 401 702 381 705 358 700 b 350 698 347 693 347 686 b 346 668 345 649 343 631 b 332 549 329 466 332 383 b 332 376 331 369 331 361 b 299 373 268 366 238 358 b 220 353 201 350 181 345 b 184 363 187 377 189 391 b 191 400 193 408 192 416 b 183 462 189 507 190 552 b 191 567 193 583 182 595 b 173 606 161 617 148 622 b 128 629 105 631 83 622 b 68 616 52 610 36 605 b 22 601 17 593 25 581 b 38 563 36 543 36 525 b 34 490 28 455 26 420 b 23 387 24 354 23 321 b 23 318 19 313 17 312 b -16 305 -49 297 -83 291 b -95 289 -95 283 -90 276 b -87 271 -80 267 -75 267 b -60 267 -45 270 -29 272 b -13 274 4 276 21 279 b 20 262 18 247 18 233 b 18 211 18 190 19 169 b 20 145 22 122 21 99 b 20 70 17 41 14 12 b 12 -6 9 -23 7 -46 b 26 -33 42 -24 57 -14 b 70 -6 83 2 94 13 b 106 24 114 38 125 50 b 163 89 165 139 170 188 b 172 209 171 231 172 252 b 173 266 175 281 175 296 b 176 309 181 313 194 314 b 213 317 232 320 250 326 b 274 334 299 341 325 339 b 328 338 333 332 333 328 b 334 311 335 294 335 276 b 336 240 337 203 337 166 b 337 144 333 122 332 100 b 331 50 330 0 329 -50 b 328 -74 326 -98 324 -123 z"},"4":{"x_min":0,"x_max":408,"ha":408,"o":"m 232 -82 b 248 -87 268 -82 273 -73 b 273 -69 280 -64 273 -64 b 268 -56 280 -52 280 -46 b 283 -35 283 -24 288 -14 b 288 -11 288 -5 288 -2 b 300 15 306 33 306 56 b 306 65 309 73 319 73 b 336 73 356 73 374 73 b 382 78 391 82 401 89 b 409 97 409 100 401 110 b 391 115 385 118 382 128 b 377 133 374 133 368 128 b 356 123 341 123 332 118 b 332 141 336 164 341 185 b 341 195 341 209 336 217 b 324 243 306 263 280 272 b 264 275 251 275 251 258 b 248 235 242 217 237 200 b 232 167 229 141 224 110 b 224 110 221 106 214 106 b 192 97 166 92 138 82 b 147 110 155 133 166 159 b 171 167 179 176 182 190 b 192 223 200 249 214 280 b 229 317 248 351 256 392 b 259 406 268 423 268 442 b 273 464 280 486 283 508 b 297 545 273 576 248 589 b 232 597 221 597 211 579 b 206 571 200 562 200 553 b 182 518 171 486 155 451 b 144 423 135 397 120 369 b 111 348 103 320 94 298 b 89 280 79 263 71 240 b 56 209 39 176 26 141 b 18 118 7 92 -1 70 b -1 65 -6 56 -6 52 b 2 30 12 7 34 -2 b 44 -5 47 -5 56 3 b 56 3 61 7 67 12 b 89 21 106 30 130 30 b 130 30 130 30 135 30 b 155 39 182 47 211 52 b 214 52 214 52 221 56 b 224 7 229 -38 232 -82 z"},"~":{"x_min":0,"x_max":344,"ha":344,"o":"m 28 614 b 37 596 45 596 65 596 b 82 605 99 614 117 622 b 125 631 134 642 143 642 b 143 642 151 631 151 631 b 162 622 171 605 188 596 b 205 588 231 579 257 596 b 268 596 277 605 285 614 b 303 631 311 642 311 659 b 311 668 303 668 303 676 b 277 659 249 631 231 622 b 214 631 197 650 179 659 b 143 685 117 676 82 659 b 65 650 45 631 28 614 z"},"D":{"x_min":0,"x_max":561,"ha":561,"o":"m 508 193 b 506 194 505 195 503 196 b 504 199 505 202 505 204 b 509 222 516 240 518 258 b 520 291 521 324 520 356 b 520 386 528 435 513 459 b 499 479 488 501 472 520 b 454 541 435 560 415 579 b 397 597 377 612 352 617 b 334 622 315 620 297 609 b 259 583 220 558 181 532 b 180 537 179 541 179 544 b 179 573 182 601 180 629 b 179 643 171 657 161 667 b 142 686 118 687 92 682 b 55 674 28 651 1 625 b 0 622 0 615 1 611 b 1 608 3 605 4 600 b 16 560 13 517 16 475 b 18 438 22 423 23 386 b 24 361 22 337 22 313 b 21 299 18 298 19 285 b 19 267 23 250 23 232 b 22 200 18 201 16 169 b 10 131 9 93 3 55 b -2 19 1 -16 4 -51 b 5 -65 13 -68 24 -69 b 35 -71 40 -64 44 -54 b 47 -47 49 -40 59 -36 b 71 -32 81 -21 91 -13 b 113 7 125 34 135 59 b 148 86 155 114 151 143 b 149 166 153 155 151 177 b 150 196 146 215 144 234 b 142 237 144 241 146 243 b 179 285 184 317 183 366 b 182 389 181 390 182 413 b 182 431 186 449 184 467 b 183 479 184 485 193 492 b 224 514 254 536 284 558 b 299 570 346 570 362 559 b 381 545 385 522 390 502 b 402 455 384 386 382 337 b 381 315 377 293 372 272 b 361 223 350 175 338 127 b 336 118 331 107 325 101 b 312 91 297 87 285 78 b 258 57 234 33 208 12 b 189 -4 182 -25 182 -48 b 182 -51 182 -54 185 -56 b 201 -73 221 -79 245 -73 b 257 -71 269 -68 280 -65 b 304 -61 326 -50 337 -29 b 350 -4 370 8 394 12 b 409 14 420 21 430 31 b 451 58 470 84 475 119 b 477 132 481 145 493 153 b 528 171 556 209 583 235 b 592 244 600 251 609 261 b 618 268 616 264 609 271 b 600 278 598 268 594 265 b 565 240 536 217 508 193 z m 199 -58 b 205 -24 224 4 250 25 b 261 35 277 40 291 46 b 296 49 300 52 306 57 b 306 52 306 49 305 47 b 291 25 281 0 259 -18 b 252 -26 246 -35 241 -44 b 226 -66 222 -68 199 -58 z"},"^":{"x_min":0,"x_max":383,"ha":383,"o":"m 344 468 b 344 479 336 488 336 499 b 294 540 261 581 231 623 b 231 634 231 634 223 634 b 201 642 181 653 148 642 b 148 642 148 642 140 634 b 140 601 110 581 88 551 b 77 529 57 510 35 479 b 16 468 27 457 46 446 b 57 446 57 446 68 438 b 99 427 140 438 159 468 b 159 479 170 488 181 499 b 190 521 201 529 201 551 b 201 559 212 570 223 592 b 223 581 231 570 231 570 b 253 551 261 521 283 499 b 294 488 303 468 314 468 b 325 457 336 457 344 468 z"},"0":{"x_min":0,"x_max":382,"ha":382,"o":"m 325 212 b 325 212 325 212 325 212 b 324 204 322 192 322 184 b 310 152 304 122 294 90 b 286 74 277 59 268 48 b 262 39 253 26 243 19 b 224 2 199 -1 181 8 b 160 18 145 36 125 50 b 109 63 101 74 95 96 b 86 121 80 146 80 173 b 76 197 80 221 86 245 b 88 268 100 295 109 319 b 118 340 130 360 140 383 b 147 394 155 405 160 416 b 170 433 181 447 194 456 b 205 473 217 479 229 492 b 248 510 251 529 241 549 b 233 562 221 562 214 569 b 193 573 175 572 157 566 b 148 561 137 555 127 546 b 118 536 113 524 103 515 b 80 492 64 461 49 431 b 38 401 26 368 19 335 b 11 298 4 263 2 223 b 5 191 5 155 16 122 b 22 103 24 87 39 69 b 50 52 66 39 76 26 b 91 8 112 -4 131 -14 b 140 -24 152 -24 158 -30 b 170 -32 187 -32 201 -36 b 212 -38 226 -32 240 -24 b 248 -22 256 -14 267 -10 b 278 -7 289 7 297 19 b 304 26 307 34 315 38 b 331 44 340 53 340 69 b 342 82 343 93 349 106 b 355 126 361 141 360 161 b 360 173 364 180 371 191 b 371 207 376 223 375 239 b 376 251 373 263 378 274 b 379 282 382 295 381 303 b 378 322 393 337 381 357 b 381 357 381 357 381 357 b 388 365 382 373 379 382 b 381 386 376 390 376 390 b 378 402 369 410 367 418 b 352 436 346 456 324 470 b 322 476 317 479 310 484 b 306 484 301 489 304 493 b 295 504 289 507 273 506 b 270 503 265 499 265 499 b 253 496 251 489 259 481 b 267 473 270 463 277 455 b 297 430 310 404 321 375 b 322 362 327 354 328 343 b 336 325 331 303 333 282 b 331 276 328 263 328 252 b 327 239 325 224 325 212 z"},"F":{"x_min":0,"x_max":307,"ha":307,"o":"m 163 601 b 167 601 171 602 175 601 b 194 598 212 592 232 598 b 238 600 244 601 250 600 b 281 595 311 591 343 594 b 361 595 380 593 398 594 b 415 596 431 599 447 602 b 457 604 466 605 474 609 b 482 613 483 623 477 627 b 466 634 454 641 443 643 b 423 645 403 642 383 644 b 349 647 315 638 281 645 b 270 648 257 645 245 645 b 225 646 204 646 183 647 b 169 647 156 646 143 646 b 131 646 119 645 109 649 b 96 655 83 655 71 651 b 46 642 34 635 36 603 b 37 580 37 557 37 534 b 37 522 35 509 35 496 b 35 466 37 436 37 406 b 37 380 35 354 34 328 b 33 310 32 291 32 272 b 31 261 32 249 31 238 b 30 220 29 202 28 185 b 27 159 26 133 26 107 b 26 88 31 69 30 49 b 28 18 29 -13 35 -43 b 37 -53 41 -54 49 -48 b 56 -43 62 -36 70 -32 b 95 -22 119 -11 145 -3 b 157 2 165 9 171 19 b 189 44 183 75 192 102 b 196 116 197 131 199 146 b 200 155 200 164 198 173 b 195 192 191 210 187 228 b 183 248 182 268 187 288 b 189 298 188 310 187 321 b 187 329 184 337 184 346 b 184 348 189 351 192 351 b 201 353 210 352 219 353 b 239 355 258 358 277 359 b 296 361 314 362 324 381 b 329 390 334 399 325 408 b 317 417 298 419 289 411 b 278 401 266 395 249 395 b 229 395 208 391 188 388 b 181 387 175 387 175 398 b 174 433 169 468 171 503 b 173 536 173 568 163 601 z"},"`":{"x_min":0,"x_max":148,"ha":148,"o":"m 52 534 b 62 534 72 529 82 524 b 82 524 86 524 86 524 b 96 524 101 529 101 539 b 106 544 106 549 106 554 b 111 563 111 568 116 578 b 116 588 111 603 101 608 b 86 618 77 618 62 618 b 52 613 52 613 52 603 b 52 593 47 578 47 563 b 47 554 47 544 52 534 z"},"k":{"x_min":0,"x_max":376,"ha":376,"o":"m 177 189 b 177 189 177 189 177 189 b 179 190 180 190 182 190 b 197 191 211 190 226 197 b 244 207 263 215 275 232 b 277 235 278 238 280 240 b 287 250 295 259 301 268 b 308 279 310 291 310 304 b 310 313 310 323 305 332 b 294 351 277 362 257 370 b 235 379 212 375 190 366 b 189 366 187 365 186 365 b 179 362 172 360 166 357 b 157 352 150 346 142 340 b 136 336 130 332 123 328 b 123 334 123 340 123 345 b 123 352 122 359 122 366 b 122 367 122 368 122 370 b 122 378 122 386 122 394 b 121 401 120 409 120 417 b 120 424 119 490 119 498 b 119 503 119 508 120 513 b 120 519 120 525 121 531 b 121 534 121 537 122 540 b 123 549 125 557 126 566 b 127 577 124 586 119 595 b 115 604 107 609 100 615 b 95 619 87 620 80 622 b 69 625 58 626 47 623 b 44 622 40 622 38 620 b 31 613 26 605 24 595 b 22 585 21 576 20 567 b 19 559 17 552 17 545 b 16 536 16 527 15 518 b 15 504 15 431 15 417 b 15 406 16 394 15 382 b 15 372 14 362 13 351 b 12 345 13 339 12 333 b 11 311 9 289 8 267 b 7 255 6 243 5 231 b 4 220 3 209 3 198 b 2 184 1 170 1 156 b 1 141 1 127 -2 111 b -5 95 -6 78 -6 61 b -6 44 -3 27 -2 10 b -1 4 4 0 11 0 b 17 0 20 3 19 9 b 19 10 19 11 20 11 b 25 19 31 26 36 33 b 38 36 41 40 41 43 b 41 46 37 48 36 51 b 38 54 40 59 44 62 b 48 67 54 70 56 75 b 61 82 63 92 67 100 b 69 106 71 113 76 118 b 83 125 90 132 91 143 b 91 150 94 150 100 148 b 108 146 115 143 122 143 b 128 142 132 140 136 136 b 142 129 149 122 157 116 b 170 107 180 97 186 82 b 189 75 194 67 199 61 b 209 51 219 40 230 30 b 241 20 242 15 257 12 b 260 12 263 13 266 15 b 274 20 281 26 288 31 b 303 42 317 53 330 65 b 355 88 372 117 385 148 b 393 165 400 183 406 201 b 408 209 408 219 406 226 b 402 239 409 251 399 260 b 398 260 396 262 396 262 b 394 261 393 260 393 258 b 391 253 390 247 389 241 b 386 228 383 214 379 201 b 375 188 370 176 365 163 b 354 135 341 108 322 85 b 314 75 304 65 296 55 b 288 46 278 39 267 33 b 262 31 258 31 256 36 b 253 44 251 51 249 56 b 252 64 255 70 255 77 b 255 90 253 103 250 116 b 247 128 241 139 236 150 b 228 167 214 176 197 183 b 191 186 184 187 177 189 z m 90 179 b 94 192 97 202 100 213 b 104 231 109 249 113 267 b 114 273 113 280 114 286 b 116 291 119 296 123 299 b 131 306 140 314 150 320 b 164 327 179 333 193 340 b 196 341 200 342 204 343 b 209 344 213 340 211 335 b 208 320 205 305 194 292 b 188 284 184 273 178 264 b 173 257 168 250 163 243 b 159 237 155 231 153 225 b 148 214 138 208 128 202 b 117 195 106 188 95 182 b 94 181 93 181 90 179 z"},"u":{"x_min":0,"x_max":370,"ha":370,"o":"m -35 286 b -34 286 -34 285 -34 284 b -29 286 -24 287 -20 290 b -12 295 -5 302 2 309 b 5 311 7 312 8 307 b 9 296 11 285 11 274 b 11 250 10 226 10 202 b 10 185 11 168 11 151 b 11 146 9 141 9 137 b 9 119 10 101 10 84 b 11 67 13 51 24 37 b 27 34 30 30 33 27 b 47 17 61 20 75 28 b 87 35 99 43 110 53 b 120 62 132 71 138 82 b 151 104 161 127 172 150 b 174 155 177 161 179 166 b 180 166 181 166 181 165 b 182 159 182 152 183 145 b 184 132 184 119 186 106 b 186 100 187 95 189 89 b 190 81 192 72 195 64 b 202 44 216 30 232 18 b 244 10 243 3 257 2 b 265 1 269 8 275 10 b 280 12 284 15 286 21 b 287 23 289 25 290 25 b 297 27 302 32 305 39 b 307 41 309 44 311 45 b 321 53 329 61 333 73 b 336 79 338 86 342 91 b 355 111 365 133 373 155 b 375 159 377 163 373 167 b 372 168 372 172 373 173 b 381 182 383 193 384 204 b 385 215 397 226 386 234 b 385 231 384 230 384 228 b 379 210 376 192 367 175 b 359 159 352 142 344 126 b 338 115 331 105 325 95 b 312 74 296 56 278 39 b 277 38 274 37 271 36 b 272 45 273 52 274 60 b 277 70 282 79 277 90 b 277 93 277 96 278 99 b 279 111 280 124 281 136 b 282 148 281 160 281 173 b 281 198 281 223 280 249 b 280 255 278 261 277 267 b 277 274 274 281 271 287 b 268 291 267 296 263 299 b 256 305 247 311 239 317 b 230 323 222 320 212 320 b 200 318 198 306 189 302 b 189 301 189 300 189 300 b 188 293 188 286 187 279 b 187 269 187 258 185 248 b 181 231 177 215 171 198 b 163 179 155 159 146 141 b 134 120 121 100 108 81 b 103 74 97 69 90 62 b 92 74 92 84 95 95 b 99 117 98 139 99 162 b 100 176 101 191 101 205 b 100 216 98 227 97 238 b 96 247 94 256 94 265 b 95 286 94 307 81 325 b 73 336 64 346 51 351 b 40 356 29 355 18 352 b 8 350 1 345 -1 334 b -1 334 -1 333 -2 332 b -11 320 -21 307 -30 295 b -32 292 -33 289 -35 286 z"},"]":{"x_min":0,"x_max":326,"ha":326,"o":"m 49 -151 b 64 -161 74 -161 85 -161 b 131 -161 167 -161 213 -151 b 249 -151 249 -141 249 -105 b 249 -94 234 -79 249 -79 b 270 -58 270 -22 260 -2 b 260 34 260 60 260 91 b 270 163 270 230 270 312 b 270 333 270 369 270 389 b 270 415 270 425 270 436 b 270 472 270 497 270 518 b 280 554 280 585 249 611 b 224 647 177 657 157 631 b 131 621 110 631 85 631 b 74 631 49 631 28 611 b 64 600 95 611 131 600 b 131 585 131 585 131 575 b 131 554 131 544 131 518 b 121 425 131 343 131 256 b 131 184 141 117 141 45 b 141 -2 141 -33 141 -79 b 141 -105 141 -105 110 -105 b 95 -115 85 -115 74 -125 b 64 -125 49 -141 49 -151 z"},"U":{"x_min":0,"x_max":572,"ha":572,"o":"m 362 240 b 362 229 363 222 364 215 b 364 193 364 171 366 149 b 368 111 373 72 384 37 b 393 9 398 -19 410 -44 b 427 -77 476 -137 514 -148 b 520 -150 527 -153 533 -155 b 551 -164 582 -158 537 -134 b 534 -133 522 -110 522 -108 b 502 -70 500 -31 497 -10 b 496 -7 499 -4 499 -1 b 504 23 509 47 512 70 b 515 92 515 112 516 133 b 517 154 520 176 520 197 b 520 231 517 266 517 301 b 517 334 520 338 520 372 b 519 407 524 413 533 449 b 538 472 521 516 502 525 b 462 543 421 550 377 523 b 354 510 347 501 353 486 b 356 479 357 472 357 466 b 356 437 352 436 355 408 b 360 351 360 323 337 268 b 320 228 302 190 281 153 b 256 110 228 67 201 25 b 188 9 171 -4 156 -19 b 148 -6 142 4 138 16 b 127 37 121 57 134 83 b 141 98 143 116 146 134 b 149 147 149 159 151 172 b 154 190 160 208 160 226 b 160 271 159 316 158 360 b 158 369 156 377 156 384 b 156 419 153 454 158 489 b 161 523 176 557 182 591 b 188 614 183 637 165 651 b 134 677 95 682 54 670 b 42 666 32 650 30 638 b 27 610 24 582 20 553 b 18 537 15 520 13 505 b 11 476 9 448 7 419 b 4 382 1 347 -2 312 b -4 291 -4 270 -5 248 b -5 241 -7 233 -7 226 b -5 195 -3 163 1 133 b 6 80 18 29 46 -15 b 62 -41 76 -64 108 -74 b 138 -84 178 -66 189 -40 b 199 -19 214 1 229 18 b 246 36 259 57 272 78 b 287 104 296 132 314 155 b 333 180 346 204 357 232 b 357 233 359 235 362 240 z"},"o":{"x_min":0,"x_max":329,"ha":329,"o":"m 249 137 b 249 150 249 160 249 171 b 248 180 247 190 246 199 b 245 204 244 208 244 213 b 245 232 241 250 229 266 b 225 271 220 275 215 280 b 209 288 200 289 192 292 b 187 293 180 290 175 288 b 171 287 169 286 166 290 b 162 298 157 305 153 312 b 147 321 141 328 129 329 b 117 331 105 332 95 324 b 91 321 88 317 83 315 b 68 310 57 299 48 288 b 38 274 29 260 21 245 b 13 231 5 216 1 201 b -3 183 -7 165 -1 146 b 1 137 1 127 4 117 b 9 99 20 84 35 71 b 50 59 64 45 83 36 b 91 33 98 28 106 24 b 116 20 126 17 136 14 b 145 12 153 9 162 9 b 176 7 189 8 202 15 b 214 22 221 32 221 45 b 221 59 224 73 231 86 b 235 92 238 99 240 107 b 241 111 243 112 247 112 b 261 114 341 167 369 281 b 371 289 368 287 366 294 b 359 279 352 265 346 250 b 336 226 325 216 311 194 b 303 181 288 162 279 150 b 271 141 259 146 249 137 z m 137 217 b 148 173 174 142 214 123 b 210 100 195 86 178 73 b 172 68 165 62 157 63 b 143 65 128 68 119 80 b 115 84 114 92 114 99 b 114 108 114 117 111 125 b 109 131 109 137 109 143 b 108 161 112 177 119 193 b 122 202 129 209 134 217 b 135 217 136 217 137 217 z m 216 150 b 214 155 212 160 209 165 b 205 174 200 183 195 192 b 193 196 191 201 188 205 b 187 208 185 211 183 213 b 174 224 168 236 165 248 b 164 254 168 260 170 266 b 171 267 174 268 176 267 b 191 263 214 246 216 226 b 217 212 222 199 221 185 b 221 174 221 162 220 150 b 219 150 218 150 216 150 z"},"N":{"x_min":0,"x_max":555,"ha":555,"o":"m 5 572 b 8 562 11 555 12 548 b 18 511 25 475 30 438 b 37 379 49 320 46 260 b 43 208 44 156 44 104 b 44 81 45 58 45 34 b 46 14 46 -7 47 -28 b 48 -40 53 -52 42 -63 b 39 -67 40 -74 39 -82 b 60 -81 80 -81 97 -90 b 106 -94 116 -96 126 -97 b 143 -98 149 -92 153 -77 b 156 -57 160 -37 163 -16 b 165 -7 168 2 169 10 b 169 38 167 65 181 91 b 186 100 187 112 189 123 b 191 130 192 139 192 148 b 193 171 193 194 193 217 b 193 239 191 261 191 283 b 190 298 191 313 190 328 b 190 340 186 354 189 365 b 198 413 211 459 232 504 b 247 534 265 562 295 581 b 297 575 299 570 300 564 b 303 545 306 527 307 507 b 309 461 310 462 312 416 b 314 386 318 380 319 349 b 320 341 318 338 319 329 b 330 296 323 276 321 243 b 318 205 324 169 335 132 b 341 109 348 86 357 64 b 367 34 384 9 409 -11 b 418 -18 430 -23 440 -29 b 463 -40 465 -49 491 -43 b 523 -37 543 -15 556 11 b 566 32 573 54 579 76 b 581 81 585 92 566 98 b 565 98 568 87 564 80 b 556 61 550 43 540 26 b 530 7 518 -11 497 -19 b 484 -23 479 -20 474 -9 b 471 -2 466 4 461 9 b 456 13 454 18 457 25 b 464 37 460 50 458 63 b 455 78 453 92 454 105 b 454 126 458 145 452 165 b 447 181 444 198 451 216 b 456 230 455 246 456 261 b 458 280 458 284 458 302 b 458 326 457 341 457 364 b 457 385 457 381 457 402 b 457 430 458 423 456 449 b 455 467 448 470 446 487 b 444 512 433 529 412 544 b 408 548 403 552 400 558 b 392 573 386 588 380 602 b 373 619 344 640 327 639 b 300 637 273 635 257 607 b 246 589 229 575 220 555 b 207 533 200 509 190 486 b 185 476 181 466 176 454 b 174 469 174 481 170 493 b 163 519 155 546 148 572 b 144 584 140 597 134 608 b 122 631 102 645 77 653 b 67 656 57 655 47 654 b 39 654 31 654 24 650 b 11 642 -4 632 -15 621 b -24 612 -32 600 -37 588 b -49 562 -59 534 -71 504 b -62 494 -45 496 -36 511 b -23 530 -11 550 5 572 z"},"+":{"x_min":0,"x_max":305,"ha":305,"o":"m 187 257 b 187 276 187 292 183 307 b 183 322 175 334 164 338 b 144 349 125 345 106 338 b 102 338 98 334 98 326 b 94 319 98 311 98 299 b 98 284 98 268 98 249 b 83 249 63 249 48 245 b 37 245 29 242 17 242 b 13 238 10 234 6 230 b 6 226 13 222 17 218 b 29 211 40 211 56 211 b 67 211 79 211 94 211 b 94 211 98 207 98 203 b 98 195 102 188 102 180 b 102 165 102 153 102 138 b 102 130 106 126 114 126 b 121 122 129 122 140 118 b 148 118 152 115 160 115 b 171 111 187 118 187 126 b 187 134 187 141 187 149 b 187 168 187 188 187 207 b 187 215 187 215 194 215 b 210 215 225 215 241 215 b 248 215 256 215 264 215 b 271 218 283 218 291 222 b 294 226 294 230 298 238 b 298 245 291 249 283 253 b 267 257 256 257 244 257 b 225 261 206 257 187 257 z"},"G":{"x_min":0,"x_max":503,"ha":503,"o":"m 239 550 b 240 550 242 550 243 550 b 244 547 246 544 246 541 b 250 528 253 515 255 501 b 257 487 274 481 285 482 b 296 483 303 496 300 509 b 296 524 291 538 287 553 b 283 568 276 581 264 591 b 259 596 254 602 249 607 b 246 610 243 613 240 614 b 226 614 211 615 197 613 b 188 612 179 606 170 601 b 156 593 141 585 130 574 b 114 559 96 544 86 523 b 81 510 70 499 64 487 b 51 461 40 434 28 407 b 14 372 2 337 -4 300 b -6 287 -9 274 -10 261 b -11 244 -11 227 -10 210 b -9 188 -8 166 -6 145 b -4 122 7 102 19 82 b 41 46 66 13 108 0 b 131 -7 154 -14 178 -17 b 200 -20 224 -17 243 -3 b 244 -2 246 -2 249 -2 b 248 -8 247 -14 246 -20 b 243 -44 239 -69 237 -93 b 236 -104 233 -113 224 -120 b 185 -150 143 -176 108 -212 b 86 -234 63 -256 50 -286 b 33 -325 25 -365 31 -407 b 33 -420 38 -434 44 -447 b 50 -459 59 -469 67 -479 b 69 -482 73 -483 76 -484 b 87 -489 97 -495 108 -499 b 118 -502 128 -505 137 -505 b 151 -504 166 -501 179 -498 b 183 -497 187 -493 188 -489 b 195 -477 201 -464 207 -451 b 210 -445 214 -438 214 -430 b 216 -418 220 -408 231 -402 b 235 -400 238 -396 241 -392 b 245 -387 248 -382 252 -378 b 255 -373 258 -368 262 -364 b 266 -357 270 -350 275 -343 b 283 -334 293 -327 299 -318 b 305 -310 306 -300 309 -291 b 318 -267 328 -242 337 -217 b 339 -213 340 -208 341 -204 b 345 -191 352 -177 353 -164 b 355 -141 354 -117 354 -94 b 353 -80 353 -60 366 -52 b 377 -45 374 -40 385 -31 b 392 -24 404 -10 410 -3 b 431 24 422 17 445 48 b 453 59 456 66 464 77 b 484 106 487 136 506 163 b 519 180 532 195 520 198 b 517 199 515 200 512 200 b 510 199 507 198 506 197 b 499 186 495 172 489 161 b 467 124 470 115 445 78 b 428 53 415 36 395 10 b 389 2 382 -10 371 -18 b 372 -5 374 4 375 14 b 377 28 378 43 380 58 b 380 62 379 67 379 71 b 378 79 375 86 375 93 b 374 102 374 111 375 120 b 375 134 375 148 375 163 b 375 171 377 180 375 188 b 373 200 367 212 365 224 b 362 244 349 256 335 269 b 334 270 331 271 329 270 b 324 266 318 262 315 256 b 294 227 290 192 280 159 b 275 141 274 122 263 105 b 245 77 227 51 198 34 b 175 20 153 18 128 25 b 125 26 122 30 120 33 b 118 37 117 40 115 44 b 104 65 97 87 99 112 b 101 130 100 147 102 165 b 104 181 107 196 111 211 b 115 226 120 240 125 255 b 131 272 137 289 143 305 b 145 310 147 314 149 319 b 152 329 155 339 160 348 b 164 359 173 369 174 379 b 177 404 190 423 203 443 b 207 449 212 454 216 460 b 221 468 227 476 229 485 b 234 506 236 528 239 550 z m 226 -169 b 220 -216 214 -261 209 -307 b 206 -331 199 -353 193 -376 b 186 -404 173 -428 157 -452 b 147 -468 122 -467 112 -450 b 105 -438 99 -425 92 -413 b 87 -406 81 -400 75 -393 b 73 -391 70 -388 70 -385 b 70 -360 64 -334 83 -312 b 91 -301 95 -285 104 -274 b 119 -256 137 -238 155 -222 b 176 -203 199 -187 221 -170 b 223 -169 224 -169 226 -169 z"},"q":{"x_min":0,"x_max":327,"ha":327,"o":"m 260 -147 b 260 -145 260 -144 260 -143 b 263 -124 269 -106 270 -87 b 271 -67 272 -46 269 -25 b 268 -10 269 5 270 20 b 270 36 271 52 271 67 b 271 89 269 111 269 133 b 270 143 268 153 266 163 b 260 187 249 206 223 213 b 217 215 209 216 202 216 b 195 215 186 206 185 201 b 185 190 184 180 183 169 b 181 153 172 141 160 131 b 142 118 123 107 105 95 b 103 93 100 93 97 92 b 97 94 97 95 97 96 b 101 105 105 114 110 123 b 114 133 117 142 122 151 b 126 160 132 169 137 178 b 142 188 148 197 153 207 b 160 222 165 237 170 252 b 176 268 180 284 184 300 b 185 304 184 309 184 314 b 187 312 188 309 190 307 b 194 299 198 291 204 284 b 207 281 212 279 216 283 b 217 286 219 291 217 294 b 213 302 207 309 203 317 b 198 327 191 336 189 347 b 186 359 171 367 161 362 b 155 358 147 356 141 353 b 131 347 122 341 113 334 b 109 331 105 325 101 320 b 91 310 81 300 75 287 b 72 282 69 276 66 271 b 57 258 49 244 40 230 b 33 218 25 206 20 193 b 11 170 4 147 -3 124 b -5 117 -5 109 -3 102 b -1 93 4 85 9 77 b 17 64 25 52 35 41 b 45 30 58 22 74 25 b 85 27 96 30 107 33 b 112 35 117 38 120 42 b 129 50 137 58 144 67 b 152 77 159 88 166 98 b 169 103 172 107 176 113 b 178 110 178 109 178 108 b 178 98 179 89 178 80 b 178 69 176 58 176 47 b 175 37 176 26 176 16 b 175 3 175 -9 174 -21 b 173 -43 172 -65 171 -87 b 170 -96 169 -104 169 -113 b 168 -126 167 -140 166 -153 b 164 -166 161 -178 159 -190 b 158 -203 165 -213 171 -224 b 177 -232 185 -235 195 -234 b 198 -233 201 -233 205 -233 b 211 -234 218 -235 224 -234 b 228 -233 233 -229 236 -225 b 243 -212 247 -197 256 -184 b 265 -170 276 -158 287 -146 b 297 -134 307 -122 317 -109 b 319 -107 319 -104 320 -102 b 320 -101 319 -101 318 -100 b 299 -116 280 -131 260 -147 z"},"d":{"x_min":0,"x_max":400,"ha":400,"o":"m 161 163 b 162 163 163 162 164 162 b 163 151 161 140 161 129 b 160 108 160 86 174 68 b 180 60 188 52 193 43 b 200 27 210 15 226 8 b 240 2 254 -4 269 1 b 273 2 277 6 281 8 b 290 12 296 21 307 23 b 309 23 310 25 311 26 b 331 43 345 65 361 84 b 367 93 371 104 377 113 b 388 129 399 145 411 160 b 426 181 437 203 439 229 b 439 234 439 240 439 245 b 439 247 437 249 436 251 b 435 250 432 249 431 247 b 417 221 404 194 390 169 b 380 151 376 132 362 117 b 341 92 320 66 297 42 b 289 33 277 27 267 19 b 266 19 261 20 260 22 b 257 32 255 42 253 53 b 254 56 255 60 255 64 b 257 73 257 81 260 89 b 263 99 263 112 260 122 b 257 136 258 147 267 158 b 270 161 273 164 273 168 b 276 189 279 210 282 231 b 282 235 284 239 283 242 b 279 262 280 281 287 300 b 295 324 290 347 281 370 b 279 376 277 381 278 388 b 280 397 279 405 279 414 b 278 424 276 435 276 445 b 277 469 271 588 272 612 b 272 614 272 615 273 616 b 282 642 269 659 249 662 b 239 663 229 664 219 666 b 209 669 200 665 191 661 b 189 660 187 656 186 654 b 184 644 183 634 183 625 b 182 601 181 482 181 458 b 180 430 179 401 178 372 b 178 369 175 364 174 365 b 159 366 145 358 131 356 b 115 354 102 346 91 335 b 80 325 68 317 59 306 b 46 290 34 273 22 256 b 10 237 -1 218 -11 199 b -17 186 -27 173 -26 157 b -26 143 -28 127 -17 115 b -10 108 -4 100 4 93 b 12 87 21 81 30 79 b 42 76 54 77 66 76 b 76 76 85 76 92 83 b 98 88 104 93 110 99 b 121 110 132 121 142 134 b 149 143 155 153 161 163 z m 171 298 b 171 285 170 274 170 263 b 170 240 156 222 146 204 b 136 183 125 163 113 144 b 102 127 90 112 71 102 b 66 100 65 101 63 105 b 56 118 50 130 42 142 b 35 152 34 157 42 166 b 50 176 59 186 67 195 b 80 210 93 225 107 239 b 124 256 141 272 158 288 b 161 291 165 294 171 298 z"},"1":{"x_min":0,"x_max":288,"ha":288,"o":"m 120 488 b 120 485 120 481 120 478 b 120 462 115 448 115 432 b 115 406 112 384 112 361 b 112 347 107 334 107 320 b 107 297 107 275 107 251 b 107 206 112 161 115 116 b 115 116 115 112 115 109 b 115 94 115 75 115 59 b 115 48 112 45 101 41 b 85 41 67 38 51 33 b 48 30 37 30 40 22 b 40 19 48 11 56 11 b 70 11 85 11 101 11 b 131 11 160 11 195 6 b 221 3 248 3 274 6 b 274 6 277 6 281 6 b 299 6 318 3 338 11 b 349 19 357 30 345 41 b 338 45 330 52 318 52 b 304 56 285 56 266 56 b 248 56 232 56 213 52 b 206 52 206 56 206 64 b 206 78 210 94 210 112 b 210 128 206 142 206 158 b 206 192 206 222 206 251 b 210 289 213 326 213 361 b 213 365 213 371 217 376 b 217 390 217 410 217 425 b 213 443 213 459 213 478 b 213 504 213 531 195 552 b 184 568 165 579 145 576 b 139 576 126 571 126 568 b 126 557 123 552 115 545 b 85 499 56 454 22 410 b 14 403 6 390 -5 384 b 6 376 11 376 17 379 b 29 387 37 398 43 406 b 56 417 67 429 78 440 b 89 454 104 470 120 488 z"},"5":{"x_min":0,"x_max":353,"ha":353,"o":"m 96 563 b 96 560 96 560 89 555 b 89 544 86 536 83 524 b 73 505 69 487 62 467 b 56 447 53 428 48 409 b 45 401 45 398 48 391 b 53 386 53 382 56 376 b 62 367 65 360 69 352 b 83 337 96 340 107 352 b 113 355 113 360 116 360 b 124 364 137 367 146 370 b 157 376 171 376 181 367 b 192 360 202 348 209 340 b 226 325 239 306 239 287 b 243 264 243 237 239 213 b 239 188 232 164 214 142 b 202 122 188 103 171 84 b 164 72 146 68 133 65 b 107 60 83 65 62 75 b 48 84 35 91 32 103 b 27 107 21 107 21 107 b 21 107 21 107 21 107 b 21 107 21 107 27 107 b 35 107 39 107 35 118 b 35 127 35 134 35 146 b 35 146 35 149 35 149 b 27 158 32 161 32 164 b 35 173 35 180 35 183 b 32 191 21 188 18 188 b 15 183 15 180 15 176 b 1 152 -3 127 15 103 b 15 100 15 100 15 100 b 15 87 21 75 32 68 b 39 60 53 53 65 45 b 83 34 96 23 113 14 b 124 7 141 7 157 -1 b 175 -8 192 -8 209 -8 b 235 -8 256 4 270 26 b 273 29 273 34 276 38 b 286 50 300 60 303 72 b 317 91 324 112 333 134 b 338 158 338 180 341 203 b 341 210 341 222 341 234 b 341 252 338 268 324 283 b 311 303 294 321 273 340 b 265 348 249 355 235 367 b 209 382 184 398 151 401 b 157 413 164 428 167 440 b 175 455 181 471 184 487 b 192 502 188 517 175 533 b 167 536 164 539 157 548 b 167 548 175 548 184 551 b 209 551 235 551 256 560 b 273 563 286 563 300 555 b 306 551 317 551 324 551 b 328 551 338 551 338 560 b 338 563 328 570 320 570 b 320 570 317 570 311 570 b 306 570 303 567 300 570 b 282 575 265 575 249 575 b 235 575 219 575 202 570 b 184 570 167 570 146 570 b 129 567 116 567 96 563 z"}}}
